<svg xmlns="http://www.w3.org/2000/svg" width="2048" height="1449.19" viewBox="0 0 618.51 437.66"><path fill-rule="evenodd" d="M-190.06 112.17c5.18-1.58 7.33.27 4.12 3.74-5.29 6.01-11.04 15.65-22.05 27.59-11.23 12.87-28.41 33.33-41.88 44.65-9.48 8.75-32.1 28.38-42.74 26.49-9.42-.24-15.88-8.13-15.96-25.01-.01-8.18 2.87-15.04 7.49-22.83 3.73-5.31 10.5-12.16 23.23-19.81 8.53-5.09 16-8.72 24.58-11.81 5.22-2.06 9.23-4.6 21.79-8.73 6.2-2.63 12.49-5.25 20.25-7.77 7.07-2.14 14.15-4.25 21.17-6.51m135.24-295.75c-11.79 9.06-23.26 18-34.23 26.74-7.49 5.86-12.79 8.91-15.01 8.9-1.48-.01-6.84-2.01-8.2-13.59-.65-8.05-.41-18.44-.57-29.36-.66-12.11-2.79-20.12-10.98-25.97-6.15-4.01-15.97-2.89-29.43 3.35-12.73 6.84-20.7 11.34-28.3 22.59-3.47 5.2-2.56 8.15-.85 7.87 1.63.05 3.52-1.4 4.79-3.25 2.38-2.39 3.93-.25 4.78.52 6.76 6.57 10.75 12.59 19.09 27.14 8.75 16.38 13.75 33.2 5.35 54.88-4.59 11.29-4.41 11.92-6.92 10.8-2.76-1.06-16.47-5.87-24.55.53-5.41 3.71-8.66 7.92-10.76 14.95-1.4 4.68-.38 13.09 3.74 17.58 3.01 2.65 10.28 1.51 17.15-3.31 4.99-3.8 12.25-12.06 15.68-17.79 2.29-3.81 3.72-5.73 5.81-3.76 3.67 2.86 10.08 10.71 13.78 21.41 3.8 9.67 6.77 32.12 3.82 48.45-1.1 13.45-3.4 30.59-10.88 47.88-4.14 12.43-8.18 23.26-22.77 49.16-6.15 10.12-10.2 16.31-13.46 21.99-2.25 2.67-2.72 2.88-6.34 3.66-17.89 4.57-39.94 10.17-81.64 28.36-5.89 2.03-11.51 5.77-17.88 9.83-8.78 6.63-15.23 11.12-18.41 16.16-2.11 3.36-9.27 14.37-9.54 27.43-.15 9.95 1.72 22.73 14.67 27.82 8.63 3.4 18.92-1.57 32.97-12.33q14.06-10.76 28.42-25.51c11.23-11.39 21.13-22.05 31-33.44q9.1-11.49 22.44-29.89c2.48-2.97 6.38-6.72 9.33-8.14 2.12-1.16 15.74-5.02 30.92-10.65q16.31-6.29 46.08-21.94c4.34-2.62 7.37-4.44 11.77-7.54 4.86-3.57 5.53.54 4.87 2.51-7.1 13.43-13.7 39.69-18.28 70.52q-3.96 29.93 1 43.53c4.82 13.08 12.26 27.89 34.07 29.46 13.75 1.85 35.4-6.49 60.47-28.55 16.85-15 26.32-25.11 35.76-42.25 4.1-5.67 4.74-3.06 4.8-.28-.61 11.72.51 32.77 7.65 42.27 4.92 8.05 12.48 14.71 22.65 17.35 7.61 1.89 23.87-.1 37.48-8.3 10.13-5.65 24.63-17.63 41.41-35.45 4.58-4.67 8.5-10.85 10.85-14.21 2.39-2.55 3.65-.1 3.69.91-.38 8.85-.86 15.54 5.65 22.97 3.66 5 9.12 7.25 16.25 6.79 10.54-1.3 11.64-1.86 19.28-10.58 5.03-5.76 11.24-12.69 15.74-20.95 3-5.5 6.15-11.29 9.63-17.37 2.37-4.33 1.29-8.92-1.57-5.75-3.35 6-8.78 16.49-12.29 21.82-2.6 3.7-16.55 24.36-28.39 27.85-7.04 1.94-11.02.47-14.79-3.79-3.48-3.04-5.31-7.05-5.39-17q-.19-8.62 1.26-13.73c1.1-3.65-.66-4.22-1.86-4.77-3.34-1.34-3.59-1.27-3.79 1.79-.42 1.4-1.06 2.55-2.54 4.12-6.86 9.65-25.97 32.33-37 40.54-6.75 4.88-23.24 19.89-42.97 21.97-16.71-.31-22.91-3.41-31.1-19.35-4.43-11.18-4.91-20.18-5.38-27.05-.2-4.6-.79-20.4 5.8-33.31 4.39-8.6 7.58-10.55 4.96-12.22-3.27-4.69-5.43-5-5.46-1.25.45 4.04.29 4.61-1.83 7.41-2.35 3.61-9.24 16.9-16.59 28.85q-7.35 11.96-23.91 30.2c-16.31 14.03-24.36 21.63-43.04 31.81-21.3 8.87-35.58 5.79-43.64-1.91-5.94-5.07-12.43-15.83-13.67-31.82-.81-11.76 1.32-38.58 8.38-63.99 4.14-16.68 8.51-29.88 11.89-43.46.65-2.1 2.12-3.62 4.34-5.26C-46.08 41.67-10.5 9.58 17.61-21.26c18.15-20.69 33.52-42.4 41.77-62.78 6.77-14.67 5.34-24.06-5.73-30.5-7.3-4.73-14.56-5.62-29.2 6.53C8-94.05-14.58-68.88-28.02-44.04c-8.95 14.67-20.3 35.03-38.54 79.07-3.3 6.47-5.7 13.74-6.41 19.84-.53 1.88-.8 2.58-3.36 4.73-21.42 14.53-62.42 34.6-92.11 43.27-3.74.91-4.08-.39-1.35-4.3 3.74-5.17 13.62-20.77 24.73-43.17 8.08-15.59 11.61-28.5 13.83-37.3 1.22-6.33 5.19-20.87 6.36-44.17.63-15.61-1.07-27.2-4.77-35.82-2.34-6.61-6.35-13.94-12.29-21.12-4.23-5.32-7.56-5.69-4.84-11.11 2.37-4.34 7.23-14.52 7.66-31.32-.37-9.77-2.43-18.06-7.74-28.99-3.5-7.01-8.42-16.57-16.28-26.1-5.2-5.47-6.88-7.14-8.92-8.47-2.17-1.64-1.99-4.15 1.18-6.21 2.45-1.7 19.87-17.32 36.6-18.78 9.52-.99 13.37 3.05 15.21 11.42.8 5.46 1.69 11.92 1.93 23.2-.19 6.35-.32 12.48-.19 18.28.3 6.39 2.72 10.88 8.52 16.22 3.86 3.57 12.26 1.87 19.31-4.22 4.93-4.06 12.38-10.52 22.25-19.15l13.56-12.17c3.93-2.83 3.45-4.83-1.14-3.17M-66.28 44.83C-50.85 8.22-34.24-27.99-11.26-61.93c10.45-15.59 30.06-35.68 42.5-44.19 8.24-5.64 13.71-9.1 20.61-5.01 4.6 2.36 8.94 7.05 7.79 13.38-2.6 11.64-8.9 24.11-15.96 35.06C33.66-45.76 17.71-24.28-16.7 8.8c-23.12 21.97-37.65 33.19-41.55 36.43-2.59 2.16-9.47 9.97-8.96 3.24zm-94.13-135.1c4.81 1.92 6.48 2.59 2.28 7.01-4.72 6.09-10.35 11.9-15.23 16.02-3.89 3.03-10.1 6-11.84 2.08-1.17-2.61-1.08-7.75 1.34-14.23 3.13-4.72 5.39-6.9 9.77-9.84 4.53-2.68 10.63-1.84 13.68-1.04M192.17 51.11c-2.99 6.26-6.07 12.45-8.61 19.06-5.33 11.37-7.55 18.57-8.02 20.67-.73 3.01-.73 4.49.63 5.7 2.64 2.05 4.01-.53 6.81-4.25 2.82-3.1 5.16-7.35 7.36-10.67 3.29-4.98 4.93-8.33 6.31-10.14 2.93-2.83 3.65-7.59 4.82-10.62.92-3.28 1.21-4.53 1.21-6.34.02-1.92-.26-2.39-2.7-4.98-3.77-3.48-6.01-1.73-7.81 1.57m5.96-12.19c-1.03 2.58-1.37 4.76 1.35 6.13 3.6 1.45 10.85 4.26 7.88 15.14q-2.98 10.89-15.11 27.33c-2.64 4.33-9.52 17.07-17.12 16.39-4.69-1.07-4.83-7.41-3.71-12.46.5-3.13 3.94-16.8 12.05-32.53 4.93-10.03 7.25-15.43 9.53-17.14 1.97-1.85.72-5.67-4.15-3.45q-6.5 3.63-22.73 15.7c-4.88 3.92-8.41 6.8-12.36 11.1-1.17 1.33-1.65 2.01-3.12.38-1.66-1.46-2.79-3.89-.06-5.9 1.82-1.33 12.9-11.8 27.76-19.74 6.75-4.19 9.34-6.33 9.07-7.61.05-1.37-1.36-3.26-2.61-4.24-2.18-1.86-6.14-4.05-11.74-7.4-3.74-2.23-5.89-5.2-3.76-6.35 2.16-.93 3.37-.23 4.17.05 5.81 3.07 9.61 6.43 17.93 15.52 1.02 1.41 1.2 2.11 4.27 2.31 3.09.21 4.31 1.11 4.08 3.73-.13.79-.71 1.88-1.62 3.04m55.69-14.35c.4-.23.59-.03.6.52 0 .8.02 1.09-.36 1.62-.64.63-1.04.68-1.22.11-.21-1.15.3-1.57.98-2.25m7.72 6.9c-.56-.2-1.41-1.04-1.11-3.6.39-1.74.72-2.4 1.7-4.09 1.28-1.19 1.06-2.95-.6-4.5-2.21-1.94-3.55-2.22-6.95-.76-4.34 2.02-7.32 3.66-9.98 4.07-1.81.27-2.83 1.16-2.77 2.74.38 3.56.37 5.62-2.65 5.33-1.95-.29-2.86-2.28-2.77-5.86.83-2.26.22-3.9-1.88-6.07-3.87-2.8-5.86-2.67-7.46 1.01-.78 3.36-2.09 6.53-3.71 8.37-2.47 3.13-2.7 3.76-4.81-.06-1.28-3.04-5.69-3.95-5.54.3.26 5.3 1.15 5.77.88 11.78q-.54 5.67-.36 8.11c.06 7.94 4.99 8.69 7.31 1.91 1.92-5.62 3.12-12.78 5.58-18.07 1.9-3.74 3.56-7.86 5.12-3.65q1.56 4.22 1.11 11.14c-.37 2.85-.84 4.73-3 9.37q-2.16 4.64-2.11 6.27c.04 1.01.25 2.06 1.44 3.07 2.04 1.54.74 4.87.37 6.63-1.65 4.09.04 16.75-2.24 22.47q-2.27 5.73-3.48 13.32c-.73 2.53-.52 4.5 1.4 5.39 5.91 3.01 5.39-.28 6.3-9.98.58-6.05 2.93-12.08 2.34-26.37.5-9.66 2.05-9.73 4.35-9.75 3.8-.33 11.7-6.81 16.02-12.05 2.86-3.23 4.77-2.68 4.39 1.96-1.04 4.26-2.67 10.16-4.16 15.66-1.29 4.31-3.65 9.33-2.92 17.12.16 7.78 7.13 11.15 11.63.76 2.11-4.98 2.9-7.08 3.62-10.01.92-1.68 2.01-1.85 2.95-.76 2.45 2.64 4.18 3.93 9.77 4.29 4.55-.03 11.16-2.27 16.82-7.45 2.94-2.64 6.12-8.36 9.04-13.14 1.95-3.18 2.63-5.57.26-6.28-1.88-.9-3.31.06-4.19 2.3-1.96 4.68-4.42 11.77-9.22 11.33-3.45-.01-3.93-2.05-2.97-6.59 1.37-4.83 3.44-12.82 3.65-21.28.91-6.28 3.05-13.07 3.89-14.72 2.48-4.24 3.34-6.08.25-7.81-2.52-1.68-3.66-2.35-4.75.34-1.56 2.33-5.12 8.6-6.57 11.6-1.88 4.37-6.01 9.28-9.68 16.66-1.26 1.63-.62 4.37-3.92 8.32q-3.3 3.95-3.94 7.14c-1.3 4.3-2.7 8.51-4.51 12.47-1.22 1.66-3.84 5.33-4.28 10.13-1.64 2.68-2.31 2.25-2.83-.6.25-2.43 1.82-5.73 2.23-8.62.74-2.07 1.92-8.48 4.02-16.91 1.33-3.92 2.2-6.7 2.63-8.35-.01-2.21 1.44-4.93 2.22-6.78.52-1.23 4.78-9.9 9.3-14.18 1.41-1.04 1.81-3-1.03-4.11-2.25-.91-3.17-1.41-4.42.6-.97 1.39-3.43 4.71-7.13 9.97-.8.64-1.92.73-2.65.47m-5.7.88c5.04-2.6 8.11 1.84 4.29 4.55-3.17 1.33-5.05 2.49-7.32 5.24-2.33 2.98-10.22 9.23-12.48 10.06-3 1.81-5.23 1.55-4.48-3.27.68-3.35 2.37-6.23 3.54-7.97.86-1.33 2.06-2.97 3.75-6.17 1.2-2.67 3.04-3.63 5.1-2.57 2.83 2.32 5.51 3.36 7.6.13m30.37 2.28c2.09-2 2.46-1.5 2.08 1.47-.27 2.78-3.96 18.83-4.23 20.05-1.57 5.07-2.04 7.73-.47 9.53.85 4.55-1.03 7.19-4.6 6.84-6.28-2.46-9.97-3.23-6.56-10.91 1.92-7.01 3.92-10.29 6.29-13.64 2.36-3.35 3.74-7.22 3.73-7.27 1.09-2.28 2.38-4.18 3.76-6.07" style="fill:#000" transform="translate(311.554 219.21)"/></svg>