<svg xmlns="http://www.w3.org/2000/svg" width="2048" height="1660.29" viewBox="0 0 642.97 521.25"><path fill-rule="evenodd" d="M244.46 134c2.13-.18 3.13 1.34 3.03 3.81-.89 3.23-2.08 3.31-4.34 2.81-2.49-1.24-2.33-4.73 1.31-6.62M92.83-89.89c-1.79-.26-2.26.93-2.19 3.02q.07 2.06.26 7.52c.01.86.7 2.97 3.14 2.69.98.01 1.92-2.2 2.03-4.24q.12-2.03-.16-6.39c-.16-1.21-1.38-2.03-3.08-2.6m-23.02 6.36c1.74 1.33 2.04 2.66.28 5.46-.57 1.08-1.9 4.1-3.69 8.44-.5 1.48-.93 1.8-2.4 1.37-1.6-.93-2.09-2.23-1.74-3.76.41-1.11 1.51-5.03 3.15-11.68.46-1.56 1.35-1.72 2.63-1.04zm214.47 19.97c1.8 2.02 4.78 4.24 4.49 7.52-.11 2.79.65 3.33 2.62 4.21 2.63.24 4.73.08 7.57-3.41 1.91-2.33 3.78-4.85 6.96-9.96 1.03-1.91.99-3.29 1.07-5.26q.09-1.96.33-3.72c.15-.91 1.57-.82 2.34-.12 1.23.89 2.32 2.03 2.63 3.9-.01 1.44-.26 3.28-1.78 6.74-2.71 6.53-7.79 14.57-11.82 16.56-3.47 2.11-10.14 2.09-12.32-2.72-1.45-3.21-3.1-6.76-3.86-10.19-.41-2.66-.32-4.59 1.77-3.55m-50.83 203.18c.26 1.93-3.37 3.32-3.18-.02.47-3.13.41-4.95-4.08-7.47-1.6-1.59-3.22-1.84-4.69-.79-1.45 1.22-.67 3.2.1 4.08q.77.87 1.01 3.33c.28 2.18 1 4.32 1.23 6.39.2 3.89.25 7.43-1.13 10.87-.8 2.57-2.8 4.02-2.65 6.31-.15 2.87-.24 3.37 2.55 5.43q2.79 2.06 2.83 4.67c.05 4.67.11 8.97 1.04 10.67.92 1.7.06 5.18.06 5.21-.1.83-.66 2.03-1.85 1.99-1.94-.7-3.02-1.15-3.9-1.36-2.1-.32-3.95-1.32-6.11-3.24-3.4-2.22-5.74-4.15-11.27-5.09-2.1.22-1.35-3.4-.7-4.27 2.33-4.06 6.66-11.61 9.08-17.93 1.62-4.21 1.59-6.11-.08-7.35-2.29-1.34-4.91-1.97-8.21 1.22-11.37 7.24-13.19 12.39-23.5 19.65-2.37 1.93-2.89 3.65-1.15 5.39 3.63 2.78 6.76 1.82 7.52-1.5.11-.72 2.21-3.32 3.97-5.37q1.67-2.12 8.9-8.58c1.8-1.44 2.46-2.3 3.63-3.03 1.35-1.12 2.52-.87 2.12 1.91-.45 1.87-1.66 3.99-2.87 6.34-.96 1.62-3.21 4.42-4.65 8.53-1.21 2.69-2.92 5.36-4.51 8.24-1.6 3.01-2.84 5.97-3.87 9.01-1.37 3.73-.88 4.48.83 5.52 1.98 1.19 3.37 1.77 4.25-.59.77-1.8 5.09-11.63 10.92-12.1 1.53-.1 4.09.94 7.25 4.06 3.17 3.12 6.13 3.29 7.15 3.35.67.04 2.68.38 4.3-1.47q2.1-1.62 2.71 1.2c.5 5.25 2.06 11.44 3.67 15.01q1.6 3.56 3.23 6.09c.91 1.61 2.02 3.48 5.05 2.09 2.46-1.1 2.57-1.67.44-4.08-1.64-1.61-3.88-5.35-5.47-11.64-.76-4.42-1.4-8.84-1.35-12.66-.48-2.87-1.22-8.66-1.09-10.38.06-1.22-.47-5.31 1.51-6.91 1.52-.72 5.18-2.11 11.43-3.91 4.5-1.28 7.39-3.59 9.29-3.43 1.69.11 2.77 1.8 2.75 5.36-.35 6.34-.02 16.85 1.48 31.6.71 4.3 1.7 8.22 3.5 10.31 2.65 3.96 5.26 1.51 3.54-1.49-.77-2.48-1.45-4.86-1.74-7.66q-.28-2.8-1-18.51c-.12-6.64-.21-13.43-.56-20.13.07-3.41 6.1-5.8 7.12-5.95 2.25-.26 6.8-.28 6.96-3.49q.15-3.2-6.56-3.39c-8.4.79-11.34 3.16-16.23 7.6-3.18 1.94-9.3 4.72-16.47 6.58-5.35 1.39-6.09.79-6.32-4.12.04-3.17-.11-9.47 1.21-11.9 1.32-2.44 2.38-4 2.5-4.08 1.08-1.44 2.65-.92 3.55.3q.9 1.22 4.42 4.97c1.54 2.03 3.53 2.51 6.34-.6 1.87-2.08 6.16-7.04 5.65-12.15-.43-5.13-3.89-9.79-9.38-9.65q-5.49.15-8.69 3.93c-2.21 2.72-2.08 5.89-1.83 9.08m-563.5-225.2c1.79 2.25 3.12 3.43 5.32 2.26 2.07-.97 10.33-3.96 16.69-7.01q6.37-3.04 27.92-13.89c28.89-13.84 59.03-28.66 86.69-41.53 34.05-15.01 86.18-39.96 158.05-70.87 30.77-12.82 51.53-19.73 60.93-23.87 6.15-2.46 12.64-4.91 17.48-6.87 5.96-1.93 6.37-.82 3.03 3.6-8.29 11.57-15.43 20.24-31.66 39.54C4.29-191.55-6.74-178.46-17.78-165q-11.03 13.46-71.74 89.2c-15.1 20.54-26.68 37.36-34.26 50.12-.73 1.31-2.38 2.19-5.7 2.31-10.43 1.18-17.03 2.88-26.75 7.39-12.48 6.17-21.97 13.9-41.13 33.35-12.74 13.16-24.6 29.3-35.61 48.29-7.26 12.99-18.37 35.17-33.4 66.34q-14.6 32.07-38.82 94.35c-3.89 8.88-7.05 21.64-9.77 32.46-1.46 4.67 3.01 5.73 5.23 2.9 2.21-1.7 10.05-9.22 21.26-24.36 8.15-10.87 17.93-23.6 25.53-34.81 5.1-7.67 15.45-24.13 31.04-49.39q16.19-24.91 27.24-42.93c18.04-30.56 36.45-61.03 54.82-89.56 12.31-18.52 20.18-32.18 25.62-39.11 1.8-2.07 2.66-2.87 5.2-2.15 12.12 1.8 24.03 5.14 31.83 8.66 4.32 2.69 13.98 8.96 20.15 13.46q6.17 4.49 21.99 14.66c2.51 1.64 2.14 3.5 2.06 4.94-.56 4.8.35 13.58 2.05 27.1 1.13 9 2.03 29.62 5.76 56.83 3.72 27.2 7.11 77.57 8.74 87.39.48 5.55-1.67 14.13 1.75 16.43 3.68 1.73 5.83.29 4.62-4.48q-1.21-4.77-.78-20.45c.14-8.27.49-17.38 1.85-22.82q1.18-6.51 3.72-33.8c3-20.56 4.93-41.56 10.93-57.95 4-10.92 3.71-12.92 7.18-10.8 4.51 5.12 12.5 11.7 26.43 24.3 12.15 12.14 28.26 25.45 49.7 41.92 16.62 11.58 30.89 16.83 50.07 18.58 6.8-.06 10.86-.41 14.65-.77 1.67-.36 2.37.13 2.74 2.16q.37 2.03 4.49 15.77c1.54 6.56 4.02 12.36 4 18.62q-.03 6.26 3.16 43.05c.52 4.56 1.66 10.77 5.36 11.01 2.24.33 2.84-1.6 2.55-6.32.15-7.99-1.06-16.85-1.92-26.17-.45-5.98-1.11-10.85-2.75-14.78-1.14-2.81-2-13.1-2.2-21.18.12-5.26.7-10.17.65-12.16q-.34-2.47-.81-12.71c.8-.79 2.21-1.48 3.71-1.76 3.92-1.01 13.07-3.55 30.69-17.35 11.01-8.88 17.4-16.89 22.22-23.17 3.09-4.16 9.17-13.22 15.9-23.79q6.73-10.57 23.47-44.41c1.92-3.87 3.56-9.32.91-16.87-2.05-3.63-3.3-1.29-3 .35.64 5.46-.42 9.29-1.42 11.58-1.86 5.98-10.22 22.08-12.21 26.2-1.13 3.32-15.11 26.84-16.2 28.12-8.54 13.83-24.89 33.6-34.19 39.73-8.52 6.78-15.52 10.43-24.34 15.06-2.17.26-3.46.62-3.42-1.49.19-18.81 8.14-91.74 20.87-132.93 8.01-28.16 12.52-44.31 13.85-47.21 1.16-2.9 3.12-10.72 6.12-19.87 2-6.09 10.14-27.32 18.17-46.46 5.21-12.93 10.07-24.03 13.57-30.37 2.19-5.6 1.51-12.72-1.09-14.23-1.73-1.01-3.85-3.06-5.86-1.78-.62.61-.6 1.97.92 2.91 2.51 1.94 2.51 3.56 2.42 4.61.01 1.65-1.59 6.13-4.69 13.95-2.25 5.34-6.81 14.86-12.22 28.48q-5.41 13.62-10.9 29.86c-4.49 11.25-7.29 21.04-10.2 31.56-2.16 6.45-10.28 33.38-11.09 37.78-1.45 2.91-7.79 26.32-15.86 70.7-4.8 29.07-6.99 49.56-7.77 61.53-.43 7.76-.19 11.83.11 13.81.07.85-.38 1.17-1.38 1.64-.99.47-5.64 1.06-6.58.85-1.5-.3-2.43-2.33-2.66-3.31-.32-1.33-4.87-15.79-12.56-39.61-6-15.81-11.38-40.55-25.79-71.34C98.01 2.82 96.14-3.8 79.08-15.11c-9.97-6.93-30.14-4.27-39.73 3.5C30.17-6.42 18.02 7.71 6.45 31 2.94 38.22.61 42.86-.79 48.08c-.12 1.15-1.39 1.69-2.37.78-4.31-4.09-16.71-15.63-22.9-20.63q-5.26-4.81-12.32-10c-1.21-1.17-2.45-3.46-2.52-8.01-1.83-22.42-5.43-77.61-9.92-96.24-1.45-7.37-4.18-5.8-3.26-1.73.61 8.32 2.19 16.69 4.99 40.33 2 16.24 2.35 36.25 4.27 50.79 1.16 9.62-1.41 9.61-3.78 7.6-5.37-4.12-17.15-12.71-26.06-19.18-5.93-4-14-8.61-19.66-10.38-3.77-1.46-10.58-2.99-21.64-5.12-5.52-1.05-3.01-3.96-2.27-5.39 13.54-20.18 50.52-68.34 75.87-99.55q25.35-31.21 62.57-75.65c11.92-14.19 23.96-27.06 32.82-40.02 1.56-2.27 3.47-4.03 6.08-6.56 1.46-1.1 1.33-1.93.1-3.29q-1.08-1.34-2.95-3.17c-.85-.78-1.99-.92-3.12-.02-2.56 1.25-7.48 2.98-14.75 5.76-5.05 1.79-29.29 11.01-69.39 28.23-28.63 12.55-51.47 22.09-67.53 29.36-11.32 4.59-45.38 21.24-104.9 47.99-26.53 13.16-34.97 16.78-48.58 23.18-8.17 4.03-18.32 8.79-25.87 12.2-8.28 3.78-16.87 7.87-29.49 14.15-4.82 2.39-12.91 4.89-18.09 7.06-4.71 1.16-6.2 1.26-4.59 3.85M-4.64 52.09c2.17 1.99 1.77 3.09.94 4.44-2.65 4.74-3.69 9.31-6.98 18.93-2.57 8.35-4.82 23.32-5.61 28.47.3 2.87-2.62 11.93-4.15 28.12-1.06 10.6-1.16 18.22-1.63 26.29.08 2.96-.27 4.73-1.67 4.24-1.52-1.85-2.16-6.75-2.3-7.83-.28-2.05-1.51-9.77-2.4-22.67-.59-8.6-2.29-21.28-3.29-34.85-.58-7.22-3.28-29.56-5.71-57.9-.35-3.77-.91-5.34-1.62-13.52-.23-3.31.71-3.49 2.46-1.92 11.02 9.49 21.48 18.84 31.96 28.2m-299.62 199.05c-3.61 2.98-4.6 1.59-3.25-3.42 1.77-5.81 11.76-33.4 13.45-37.7 8.32-20.58 22.31-52.19 29.04-71.03 5.4-12.19 10.51-24.31 16.37-35.85q6.08-12.59 16.71-31.41c7.32-13.54 15.8-25.47 27.09-39.8q11.3-14.34 25.26-26.77c6.94-6.48 15.46-13.82 25.91-18.17q10.45-4.36 16.57-5.19c6.67-.91 7.87-.91 5.92 3.18-2.39 2.92-8.44 12.12-15.63 23.92-5.02 7.98-10.09 15.9-15.2 23.49-5.31 8.82-15.5 23.3-28.99 47.32-9.21 15.26-17.96 29.65-25.84 41.74-4.55 7.49-13.34 21.29-26.26 41.27-8.48 13.59-16.12 26.09-23.13 36.97-4.73 7.47-12.57 17.29-22.17 30.36-4.68 7.08-9.86 14.12-15.85 21.09m454.96-110.7c2.37-.41 5.36-1.35 5.34.93q-.06 12.22.18 14.37c.25 1.41-.43 4.54-2.58 1.2-2.96-8.2-4.5-12.88-4.89-13.4-.29-1.72.25-2.74 1.95-3.1m-8.11-10.29c2.16 6.18 2.2 9.01-3.54 8.75-4.14.29-28.1.64-46.28-9.87-11.5-5.92-30.27-21.51-54.81-43.22-15.87-14.23-27.12-24.7-34.61-31.78-1.36-.92-1.93-2.09-.62-5.28.88-2.13 8.72-22.05 19.9-37.25 7.46-10.12 18.18-21.21 31-25.54 8.82-1.59 15.92-1.7 22.54 1.4C81.8-8.97 86.65-5.66 92.01 1.42c3.61 4.9 8.3 13.25 14.1 25.19q5.3 12.17 12.46 32.75c8.01 23.6 15.67 47.41 24.02 70.79" style="fill:#000" transform="translate(330.677 257.983)"/></svg>