<svg xmlns="http://www.w3.org/2000/svg" width="2048" height="1600.79" viewBox="0 0 644.48 503.76"><path fill-rule="evenodd" d="M-62.35-229.08c-1.91 1.02-3.18 2.03-1.79 4.35 1.37 1.72 2.44 2.23 4.66.75 10.04-7.76 16.26-11.2 23.89-15.25 5.38-2.54 10.54-4.38 13.32-5.36 2.34-.81 6.54-2.03 13.34-2.94 4.61-.84 4.64.8 4.24 3.45-.35 1.83-1.06 3.73-2.32 5.66-10.24 16.79-29.29 41.52-43.19 60.4-10.92-8.71-24.34-20.98-44.01-37.22-7.81-6.3-13.5-9.59-17.08-11.27-4.46-1.88-16.15-1.89-19.02 7.82-.19 10.3 1.63 40.46 3.26 90.59 1.1 14.96 7.45 19.29 11.34 19.43 11.72-1.27 25.49-13.48 41.65-31.17q15.57-17.87 25.25-29.23c5.94 4.59 11.59 9.81 17.04 15.44 5.37 6.32 6.67 14.94 1.3 22.29-10.13 16.32-25.59 26.76-53.76 47.89-20.09 15.21-61.82 45.13-87.48 67.98-25.66 22.86-28.08 29.21-28.09 28.97-2 2.98 1.14 9.6 8.87 10.69 17.06.16 26.49-2.08 38.74-7.01 12.57-4.07 50.27-16.92 73.54-20.33 12.9-2.41 23.18-4.74 34.24-4.65 7.38.07 15.59-.63 20.56 3.34 3.59 2.03 6.67 4.94 7.5 9.55.38 3.18-.45 4.83-2.98 9.29-4.6 8.88-10.48 18.02-18.79 26.58-15.12 17.63-49.41 51.29-77.9 73.6-9.23 9.43-14.41 11.57-19.26 13.66-20.4 8.08-43.44 20.13-71.77 35.09q-28.34 14.97-52.28 30.86c-20.15 12.53-42.14 29.4-47.45 35.53-3.88 3.89-8.23 7.71-12.76 14.14-3.65 3.8-3.29 5.69 1.03 6.94 5.77 1.47 21.82-3.67 43.42-15.23 13.39-7.68 25.94-16.27 41.44-25.08 10.22-6.18 21.19-14.39 35.19-24.97 9.27-7.58 44.29-33.02 54.12-42.02 7.77-6 13.79-10.88 20.42-15.56 4.82-2.92 9.65-6.09 19.3-9.68 17.14-6.6 74.35-29.93 95.84-37.66C5.6 75.19 36.35 64.6 83.46 50.13q23.44-7.86 7.58.51C68.01 64 59.96 67.2 47.53 75.4c-11.88 7.04-25.67 15.51-45.1 27.47Q-17 114.83-44.52 132.18c-21.36 14.09-39.44 27.5-56.23 40.21-11.28 7.9-20.08 13.78-27.58 22.65-3.87 3.75-1.45 8.89 1.76 10.75 2.14 1.23 11.23 2.52 18.87-1.54 5.47-2.47 13.89-6.55 25.03-12.21 7.22-3.7 19.85-10.93 40.37-23.66 13.98-7.79 26.57-14.48 38.56-21.17 11.26-5.88 23.17-12.55 42.76-24.04 4.57-2.65 6.63-3.02 11.67-5.24 3.36-1.48 8.23-4.16 16.8-6.19 6.05-1.57 7.07-.92 3.99 2.98-3.31 4.3-10.52 13.34-23.59 29.86-11.18 12.92-22.23 26.33-26.05 35.32-1.51 6.2-.55 9.31 3.98 12.83 3.02 2.34 7.53 4.98 15.4-.23 6.8-4.06 19.38-11.15 31.9-18.7 10.13-8.98 30.55-23.48 53.9-37.33q12.56-8.19 15.54-10.28c5.42-4.12 6.73-4.68 2.98 2.03-7.07 9.96-13.27 19.71-13.63 22.17-.65 2.68-5.56 13.51 1.87 22.3 4.38 5.48 7.47 8.53 15.98 8.55 8.69-.25 12.09-1 19.62-10.95 5.08-6.25 5.41-8.21 4.35-9.47-1.56-1.09-3.25-.27-6.04 2.99-5.4 7.14-12.68 11.64-19.59 12.44-4.47.77-11.24-5.11-11.26-11.97 1.26-8.53 3.67-16.66 7.33-21.61q3.65-4.96 11.73-18.22c2.49-3.73 5.63-7.53 2.68-10.34-2.3-1.91-4.9-1.73-7.82.46-2.38 1.35-7.77 3.75-14.19 7.67-4.39 3.57-10.4 7.59-18.25 12.43-6.55 4.1-16.93 11.16-30.12 20.41-8.61 6.55-17.84 13.88-24.51 18.37-8.36 4.56-18.29 9.81-26.82 14.67-8.33 3.31-11.15-1.54-7.38-8.41q3.71-6.93 17.75-24.92c10.36-12.8 22.31-25.46 30.06-37.2 4.52-6.9 4.41-8.93 2.71-11.25-2.64-2.82-6.41-3.03-13.9-.39-14.11 3.84-21.22 8.94-25.87 10.97-4.64 1.25-9.81 4.22-18.07 9.98-12.83 7.12-19.79 10.16-34.07 18.74-18.09 10.21-40.34 23.24-53.82 31.38-13.08 8.71-20.47 11.19-38.64 20.64-11.02 4.36-15.23 4.51-16.87 4.14-3.01-.32-3.98-3.12-1.33-5.91 2.64-2.77 12.91-11.12 28.2-22.71 10.83-8.33 26.4-19.49 45.47-32.31 12.75-8.39 26.31-17.53 41.27-26.83C2.48 108 13.17 102.08 24 94.51 35.58 88.1 39.93 84.28 54.14 76.6c13.87-7.83 33.77-18.19 40.17-22.12q6.41-3.92 17.3-9.44c4.29-1.23 7.92-1.98 5.47-5.21-3.09-4.2-4.25-3.85-8.88-2.29-6.16 2.3-13.83 4.3-28.91 9.17-17.09 4.56-39.89 11.65-60.7 18.7Q-2.6 72.64-54.79 92.62L-103.2 113c-5.23 1.93-6.65 1.69-1.78-2.31 3.25-2.66 36.91-27.81 73.52-69.13 13.89-16.11 21.47-28.5 19.6-37.39-1.09-10.51-14.62-15.28-16.93-15.68-9.2-2.34-32.26-1.11-45.47 2.27-17.9 3.41-36.45 8.42-60.93 15.86-24.67 7.99-36.62 12.7-47.57 12.38-7.65.05-13.24-.35-10.52-4.67 2.91-4.21 8.19-10.13 13.48-15.05 3.63-3.42 18.86-18.13 40.45-35.53 16.31-12.25 40.6-30.43 68.49-51.55 22.28-16.87 29.83-21.68 39.01-32.99 7.57-8.51 11.3-12.86 11.06-19.27-.17-5.17-1.87-9.83-6.09-14.26-2.48-3.79-9.11-10.57-18.7-18.79.93-4.52 5.48-7.69 9.78-13.44 3.69-4.69 12.06-16.38 25-34.96 8.29-12.5 12.86-20.68 12.39-23.54-.76-5.82-5.1-8.07-11.02-7.63-7.76.89-18.15 3.86-26.46 8.34-6.56 3.11-11.58 5.78-15.85 8.06zm9.95 55.79c-4.79 6.52-36.48 44.01-44.35 49.03-9.26 7.17-14.54 9.97-17.33 10.11-6.02-.66-7.07-7.22-7.37-11.79q-.35-4.52-2.43-48.02c-.28-14.51-.87-29.41-.38-43.09 1.38-5.27 7.17-5.14 13.34-2.77s14.35 9.3 14.39 9.3c2.28 2.34 9.28 8.19 21.85 19.07zm-93.39 312.62c-2.13 1.84-5.74 4.54-8.38 6.49-2.5 2.51-14.65 12.22-35.03 26.87-14.77 11.11-31.6 23.63-49.09 34.49q-17.81 11.17-22.54 14.24c-9.32 6.34-19.28 11.12-28.3 15.91-6.68 3.09-12.03 5.12-16.44 6.74-3.17 1.09-7.06 2.2-7.46 1.14-.9-.63.16-2.28 2.68-4.86 1.99-1.72 6.72-7.1 15.37-14.79 6.12-5.15 12.82-10.35 19.61-15.55q6.8-5.19 34.32-21.84c8.99-6.24 25.01-15.08 37.05-21.19 9.02-5.24 21.33-10.66 33.62-17.33q11.37-6.49 18.03-9.95c4.48-2.18 10.57-5.21 6.56-.37M150.5-2.39c-2.26-.2-2.99-.09-2.87 2.53.08 1.74-.16 4.92 2.46 5.36 1.87.32 2.78-.34 4.17-2.97.74-1.59 1.66-3.71-.11-4.23-1.26-.34-2.47-.57-3.65-.69m85.4 193.07c-1.62 4.03-3.3 8.84-2.92 11.33.28 4.06 2.31 10.96 6.18 15.04 1.21 1.15 1.7 1.05 3.28 1.01 2.59-.09 3.45.01 1.77-2.53-2.04-3.07-4.5-6.98-4.86-12.29-.25-4.06 1.49-8.09 4.76-12.82 1.98-2.82 2.52-3.45 3.79-3.47 1.26-.04 2.38.53 2.46 2.01 1.26 6.02 1.67 7.2 3.01 13.14.88 3.78 1.79 5.44 4.03 6.98 1.49 1.02 4.12 1.5 5.12.13.71-.92 1.14-2.49-.51-4.52-1.72-2.07-3.33-7.83-3.18-7.76-1.07-4.54-4.52-10.53-.08-13.04 5.58-1.7 9.26-1 9.43.17.55.74.46 8.06 4.02 7.65 2.42.2 3.66-1.8 4.78-6.87.42-1.17 1.41-1.71 3.42-1.5 2.86.22 8.04-.94 12.11-5.23.88-1.85 4.51-1.61 4.1 1.43-.09 3.14.99 7.83 4.04 9.85 2.04 1.35 6.71 4.5 11.39.06q4.36-4.13 8.57-8.18c1.18-1.31 2.65-3.37 1.29-5.41-1.31-.88-3.36-.18-6.29 2.19-4.94 2.59-5.57 4.99-9.47 4.16-3.06-1.54-1.79-1.9-1.14-5.3.46-2.47.29-4.91 2.21-8.57.48-1.56 1.35-2.6 2-3.31 1.38-1.65 3-3.09-.15-5.16-3.21-2.9-4.15-4.11-6.48-1.57-6.13 9.45-14.56 15.67-20.75 17.97q-5.14 2.01-2.37-4.39c.87-3.69 3.77-8.76 2.85-11.65q-.92-2.89-5.33-5.76c-2.13-1.19-3.92.06-5.73 1.1q-1.28.7-3.88 2.63c-1.39 1.56-1.04 2.75 1.56 2.82 5.86.1 5 .36 5.08 4.68q-1.43 4.61-2.55 9.27c-1.46 2.94-3.57 2.83-5.22 2.94-4.52-.27-10.35.24-15.18 1.47-4.09.78-5.93.45-4.3-3.03q1.63-3.48 5.05-7.08c2.07-1.98 2.13-4.56-1.27-7.47-3.02-3.13-3.9-3.71-9.09-1.81-3.48.17-6.18 1.03-8.1 1.51-3.45.86-1 5.27 1.34 5.41q2.48.26 8.16-.26c1.93 0 1.38 1.61-.15 3.63-1.41 2.07-4.3 5.81-8.39 10.79-2.97 2.49-4.75 3.5-8.92 4.16-3.16.5-4.12 2.11-2.02 4.95 2.19 2.74 2.82 3.51 5.94 3.03 2.1-.28 4.4-.48 8.15-4.3zm1.56-1.77" style="fill:#000" transform="translate(322.039 252.733)"/></svg>