<svg xmlns="http://www.w3.org/2000/svg" width="1812.77" height="2048" viewBox="0 0 545.46 616.23"><path fill-rule="evenodd" d="M-73.71-107.17c15.83-59.72 35.81-117.74 51.31-164.22 4.86-13.83 5.6-18.08 5.64-24.78.11-4.48-.56-6.7-2-6.81-1.87-.48-3.26.57-4.16 2.47-1.25 2.52-4.29 8.8-8.31 16.92q-4.5 10-12.71 29.97c-7.67 22.07-14.68 44.01-19.67 63.32-3.79 14.35-8.3 32.57-11.25 56.24-.45 4.66-.79 11.28-.97 15.89s-.04 9.19-.04 9.19c-.03 5.96.54 7.58 2.16 1.81m-12.32 32.05c5.26-10.93 6.69-15.63 5.14-27.4-.03-27.56-.01-39.48 8.74-74.84 5.66-23.46 14.57-54.14 27.99-87.25 7.4-20.64 14.11-33.61 16.75-38.48 2.82-4.86 10.73-8.5 14.85 1.86.75 1.41-.02 9.06-1.12 16.31-3.02 14.55-11.29 38.49-16.8 53.83-4.5 11.01-14.09 39.16-26.78 82.09-8.47 28.63-13.98 45.13-15.31 50.15-1.46 3.95-2.06 8.03-1.44 13.53 2.11 9.62 4.85 32.18 20.69 40.98 9.97 6.46 25.13 5.13 46.32-15.62C7.13-73.8 15.43-83.7 18.99-89.84c1.79-3.46 2.74-3.5 4.55-2.63 2.72 1.27 5.14 2.54 2.79 4.7-1.85 1.57-3.76 5.2-5.17 11.21-1.5 4.65-3.64 10.37-5.7 22.74-.77 13.73-1.68 17.99 2.94 24.49 6.06 6.03 9.32 9.62 16.98 2.48 7.31-6.23 17.82-21.01 23.18-37.81q6.27-17.69 14.17-47.24c1.49-5.37 5.9-11.95 4.45-16.12q-1.45-4.16 4.22-3.72c3.82.65 5.16 4.8 3.1 9.98q-2.02 6.21-3.15 20.53c.91 19.6-2.02 44.83-4.88 74.21-.75 19.48-4.47 38.65-5.84 55.78-.79 8.11-2.15 9.74 3.08 7.16 4-2.51 28.17-16.99 78.59-45.52 9.02-4.55 8.22-.99 2.56 2.09-3.49 2.17-30.98 18.3-82.49 48.29-2.64 1.49-3.47 3.33-3.4 5.26-10.04 59.71-9.9 66.06-24.69 120.83-10.1 40.16-22.43 78.74-36.31 105.5-9.94 19.38-16.49 31.67-32.72 35.97-11.06-.04-15.36-7.11-21.89-27.82-5.66-16.93-9.4-41.7-8.37-74.11-.31-29.35 2.45-57.06 32.47-92.77Q7.3 78.01 37.32 58.74c8.28-6.06 15.5-10.76 25.74-17.49 1.42-1.72 1.83-3.19 1.96-5.37.9-14.38 4.98-46.28 7.62-86.85 3.59-20.89 4.17-43.32 3.76-49.84q-.05-8.14-2.12-.24c-4.91 21.26-10.33 40.19-16.74 53.12-8.73 18.57-18.9 30.86-29.63 30.01-7.56.54-19.67-8.85-19.16-24.45-.26-10.96 1.84-19.38 5.14-29.08 3.56-10.82-1.76-2.71-3.16-.32C0-58.22-7.3-52.34-13.04-48.42c-8.73 8.35-19.53 12.44-28.77 11.94-5.68-.09-18.94-2.3-27.36-16.97-6.77-10.11-5.75-18.05-7.37-20.77-1.62-3.88-2.81-5.69-5.46.64-2.69 13.27-15.63 44.32-28.72 59.76-4.88 5.61-9.11 9.44-21.71 8-13.19-2-21.25-14.97-23.66-36.54-.52-4.69-1.01-10.01-.62-14.43q.39-4.41-1.31-.54c-2.73 3.9-5.17 9.01-7.66 14.22-1.79 3.32-8.35 22.6-21.39 46.34-9.96 16.98-20.16 25.87-32.06 26.49-11.16.92-25.11-5.85-32.95-21.12-5.38-11.07-9.35-23.31-11.33-35.74-1.57-8.71-6.71-28.13-8.43-54.01-.23-14.8-.29-31.19-.01-44.69.24-10.02 2.02-35.85 5.37-77.57 3.52-26.9 4.01-40.53 4.61-44.46-.06-4.18-.34-4.54 2.99-3.62 4.51.86 4.64 1.4 3.72 3.64-.75 1.42-1.45 3.81-2.05 6.23-1.01 9.52-3.61 30.15-5.16 43.66-.96 10.09-2.99 36.71-4.63 80.44-.15 12.55.28 27.17 1.27 44.32 1.01 12.87 3.8 29.52 7.39 44.97 4.93 14.82 7.17 34.05 19.73 46.1 8.93 8.87 18.82 9.55 28.2 4.34 10.46-7.39 18.81-19.03 27.67-39.57 5.9-13.69 11.55-27.89 18.09-39.02 2.94-5.9 4.89-9.44 6.31-11.27.85-1.27 1.54-1.51 2.95-1.53 4.11.36 5.08-.09 4.85 3.14-.35 3.47-.59 9.94-.03 18.88 1.24 11.79 2.91 24.85 13.01 34.2 1.37 1.23 2.75 2.93 8.81 3.05 5.14-.14 11.32-3.43 18.68-14.64 4.9-7.47 8.29-14.69 11.74-21.45 4.06-9.78 7.8-19.54 12.3-29.12M61.22 47.85 44.76 58.52C18.12 76.49.25 93.48-8.51 104.08c-12.62 14.81-24.87 28.8-34.27 50.38-12.82 33.27-6.7 75.89-6.79 92.18 1.93 14.88 1.82 19.88 10.12 41.65 11.58 21.63 16.32 15.99 20.9 13.68 7.34-4.15 14.12-11.86 22.06-29.02 13.5-26.6 32.05-84.26 40.69-122.32 12-50.46 16.41-81.7 19.12-99.89.79-3.8.8-5.14-2.1-2.89m142.66 81.25c3.27 3.2 5.59 2.46 7.7-2.24 1.23-2.34 7.37-6.69 13.15-9.31 4.06-1.94 5.99-2.6 4.98-.04-2.9 6.57-5.94 11.04-6.31 18.27-.29 8.22 2.26 16.36 9.74 17.18 6.22-.14 10.4-3.9 16.94-13.09 4.36-6.14 6.21-9.93 4.97-10.99q-1.22-.84-3.3 1.61c-6.78 6.35-12.47 15.5-16.92 15.67-3.11.52-6.8.12-4.95-10.18 1.95-7.69 4.05-13.49 6.68-18.86 1.73-3.51 4.09-5.14.88-7.63-2.51-1.68-4.81-2.89-8.65-.5-4.52 2.42-11.89 6.07-18.99 10.79-4.73 3.14-10.1 5.62-8.02 7.5zm66.34-39.65c3.61 1.04 4.21 4.77 1.57 6.77-2.57 2.78-2.37 4.35-2.67 6.32-2.25 10.09-3.48 29.67-4.36 59.78-.32 16.55.24 22.8.85 27.26q.16 3.12-2.8.37c-2.97-2.76-2.85-4.23-2.88-5.63-1.14-13.43-1.19-30.84-.07-45.25.86-12.28.78-23.99 2.99-35.4.54-6.65 1.94-11.07 3.08-12.69.84-1.77 2.42-2.01 4.29-1.53m-96.43 21.65c1.76-7.32 4.05-15.4 5.83-19.88 1.36-3.58.57-6.58.96-8.75.22-2.58 1.68-3.69 4.08-1.16 1.05.61 1.28.14 3.3 1.47 1.09.95 1.21 1.75.27 3.06-.9 1.17-1.83 4.93-2.56 8.84-3.54 6.31-6.18 13.19-7.49 21.72-1.1 6.71-1.72 15.53-2.01 26.47 0 1.68.67 2.99 3.96 3.07 3.3-.09 12.21 2.83 11.16 9.89-.88 3.84-4.28 10.17-6.06 16.67-1.25 4.66-4.83 9.62-2.42 15.01 2.01 4.04 4.28 8.31 12.2 3.34q7.91-4.96 8.86-2.46c.67 1.49-.69 2.88-2.48 3.99-5.29 4.12-13.77 9.02-19.32 2.82-5.87-4.45-6.05-5.78-6.08-11.98-.16-4.18.9-7.99 3.07-12.7.98-3.34 2.46-7.61 5.33-13.73q2.87-6.11-3.67-5.76c-3.77.01-7.78 1.22-11.76 3.74-3.74 2.78-6.91 2.76-9.62.64-1.96-2.04-1.22-3.89 2.49-4.83 2.47-.63 7.21-2.98 11.29-4.63.73-.35.71-1.14.12-2.81-1.09-5.96-1.87-13.83-.92-18.75-.25-2.82-1.6-4.46-4.11-2.58-1.79 2.19-4.51 6.35-7.56 9.8-7.1 7.08-15.98 10.83-22.75 4.61-4.57-3.91-5.79-9.16-3.57-17.24 1.09-5.39 3.22-11.06 5.47-15.93 2.64-5.04-1.38-6.9-5.67-4.89q-5.09 2.83-15.93 9.16c-3.13 2-5.33 4.11-6.79 6.73-1.15 1.67-2.52 3.4-3.83 5.44-.87 1.91-1.8 1.59-3.08.27-1.1-.89-1.74-1.93-2.2-2.5-.8-1.08-.03-2.24.61-2.64 4.89-5.2 6.95-8.65 12.9-11.87 3.18-1.58 8.02-5.19 16.31-9.18 5.69-2.35 8.64-1.75 11.59-1.2 5.5 1.27 5.33 4.12 3.18 8.33s-5.53 15.14-6.39 18.77c-2.05 8.68-2.15 9.94 1.91 13.92 5.08 2.04 7.49-.28 12.38-3.48 3.32-3.1 7.17-7.11 11.51-11.25 2.5-2.42 4.54-4.07 5.48-4.64 1.25-.83 1.76-1.84 2.01-2.92M-178.9-162.96c4.04.44 4.57 3.22.66 3.2-4.12.1-17.37 2.49-25.34 7.92-12.81 9.09-20.75 19.18-27.99 34.52-1.48 4.36-2.38 8.68.45 11.64 1.88 1.97 5.39 6.11 15.91 4.68 8.5-1.36 13.73-2.83 27.06-12 8.88-6.12 14.83-7.23 26.84-19.95s13.49-16.15 13.54-22.42c-.18-6.19.38-7.29-3.74-12.99-3.47-4.19-7.79-7.14-15.78-8.85-5.9-.92-18.81-.81-29.92 6.34-8.69 4.8-17.27 11.66-24.14 20.12-2.42 3.49-3.59 5.38-4.45 7.74-1.3 3.1-2.76 4.18-2.51-.04.13-5.28 4.24-11.83 14.25-20.71q10.56-9.37 23.54-14.68c4.31-1.8 8.77-3.49 16.71-3.43 8.09-.23 19.73.82 29.5 18.42.69 1.35 1.29 6.97.36 12.51-.4 2.89-3.65 8.14-8.13 13.67-5.61 7.37-12.44 13.34-20.56 19.49-6.9 5.09-15.76 10.77-25.93 16.22-11.93 6.19-23.49 6.92-27.92 4.65-3.18-1.12-11.28-5.92-11.29-13.99.19-5.56 1.48-10.01 8.4-20.1 4.61-6.7 13.45-17.4 25.7-24.88 7-5.43 15.89-6.78 24.78-7.08" style="fill:#000" transform="translate(272.039 307.887)"/></svg>