<svg xmlns="http://www.w3.org/2000/svg" width="2048" height="1861.69" viewBox="0 0 570.62 518.72"><path fill-rule="evenodd" d="M202.04 213.69c1.94-.01 3.18.99 3.18 2.62.31 2.15.37 6.7 1.75 12.3q1.5 5.63 2.98 2.51c1.71-3.65 3.49-7.04 6.56-9.31q3.06-2.27 5.74-2.15c1.68.29 3.51 3.62 4.53 7.23q1.48 3.68 4.52 14.38c1.98 6.96 2.88 8.79 1.34 9.16-2.51.65-5.63-.35-6.81-5.36-1.34-4.05-1.91-9.44-3.6-15.89-.88-2.5-1.58-2.98-2.59-3.19-.84-.05-1.66.81-2.74 2.49-.6 2.67-2.82 7.8-4.1 14.29-.48 3.91.09 7.67-2.67 8.38-3.56.56-4.5-2.16-5.79-9.45q-1.3-7.28-5.73-25.67c-.74-2.48 1.45-2.31 3.43-2.34m-23.72 23.16c2.22-.8 3.17.21 3.67 1.8.42 4.48-.67 12.55-1.42 13.12-1.53 2.41-4.24 3.47-7.2.68-1.99-1.85-3.08-3.82-3.57-5.88-.39-2.52.88-3.61 1.86-4.6 2.22-1.71 4.36-3.59 6.66-5.12m.4-9.08c.22 1.53.27 2.88-1 4.12-1.2.91-3.27 2.54-6.01 3.28-1.7.36-3.07.06-3.47-2.11-.74-1.97-.87-7.42-.84-16.83.02-6.28.22-7.53-2.07-7.24-4.24.62-5.05.59-4.94 3.12 1.31 5.77 2.31 19.79 2.88 25.31.37 3.96 1.23 12.41 3.72 15.54 1.45 2.83 4.44 5.84 10.17 5.74 5.17.15 10.51-2.14 10.19-8.41.64-4.52-.48-11.56-2.56-19.45-1.07-5.34-1.71-10.02-3.59-12.77-1.88-2.74-4.95-1.45-5.44-.94-.65.6-.39 1.65.47 3.05 1.33 2.09 2.06 4.71 2.49 7.59m69.67-7.52q-8.08 7.17-8.63 9.22c-1.47 3.3.54 9.89 3.6 13.53 1.94 2.52 4.39 4.69 7.61 4.67 2.15-.02 6.33-.69 8.26-5.57q1.93-4.89 3.06-14.15c.54-3.38-.09-4.57-4.87-7.6-2.46-1.43-5.27-2.42-9.03-.1m-.07 6.22c1.54-1.49 4.59-2.79 6.04-2.34 2.72.53 2.7 2.95 2.55 4-.37 2.27-1.4 8.24-2.04 10.33-.97 2.91-1.73 3.69-3.59 3.7-2.4-.25-3.79-1.97-5.12-4.79a9.5 9.5 0 0 1-1.06-4.35c-.03-1.08.49-3.72 1.41-4.94.56-.64 1.22-1.16 1.81-1.61m24.91-15.67c2.43.24 2.96 2.25 3.34 4.05.43 1.7 1.72 5.77 2.04 9.31.45 2.48 1.12 6.95 2.81 12.34.94 3.99 1.77 8.06 2.35 9.98 1.08 3.68 1.11 4.47-.84 6.11-1.35 1.11-5.52 3.36-5.45-1.42.08-4.78-.06-6.24-.23-8.94-.31-1.55-.57-2.82-1.16-4.09q-.6-1.27-.86-3.29c-1.15-3.99-2.16-7.96-2.79-11.81q-.63-3.85-1.04-7.69c-.23-2.02-.62-4.15 1.83-4.55m-54.12-103.36c2.1.93 1.71 1.6 1.31 3.72-.56 2.8-.69 3.94-2.69 4.06-2.49.04-3.97-.17-2.99-2.66.86-2.47.91-2.98 1.29-4.58.48-1.55 1.86-.89 3.08-.54M-55.09-92.4c-2.02-1.16-2.41-.22-1.85 1.98.92 2.57 1.9 6.19 5.05 4.86 2.32-1.29 2.97-1.87 1.43-3.29-1.5-1.26-3-2.49-4.63-3.55m-16.62 12.13c2.94-.07 4.96.91 2.97 2.19-1.32.84-3.4 2.19-5.09 2.31-1.12.09-3.34.37-3.95-1.11-.59-.91-1.42-2.61-.45-3.11 1.26-.83 4.34-.19 6.52-.28M38.61-233.65c.71 2.58 1.44 5.41-2.1 4.22-3.88-1.59-4.92-3.59-5.06-6.25-.07-2.87.92-3.68 1.89-3.82 3.61-.53 4.12 3.34 5.27 5.85m21.59-9.84c-3.34 3.92-5.6 7.41-6.93 11.74-.67 1.89-.68 2.64.76 3.07 2.56.72 2.82.45 3.62-1.39 1.01-1.8 3.45-5.55 6.83-10.53 1.87-2.74 1.48-3.5.34-4.49-1.48-1.04-3.11-.59-4.62 1.6m-155.81 204c1.22.66 1.78 3.29 2.61 5.44.57 1.94 2.92 3.51 6.99 5.47 6.12 3.16 10.7 12.98 12.92 16.28 1.55 2.2 2.58 6.78 5.88 10.29C-65 .5-64.37 1.98-63 1.07c1.32-.88 1.48-1.29 1.59-5.04.07-2.5.71-8.71 1.9-12.95 1.18-4.23 5.11-20.33 6.16-23.94.82-2.74 3.6-10.96-.22-15.18-2.55-3.75-5.26-1.85-8.37-1.43-7.08 2.09-21.52 7.75-26.99 11.58-3.83 2.03-5.7 3.17-6.54 4-1.09 1.33-.77 2.07-.14 2.4m5.21.51c.29-.88 1.61-2.04 2.13-2.45q1.94-.76 15.55-7.12c4.54-1.74 8.27-3.2 12.08-4.29 3.38-.94 3.16 2.68 3.07 3.27.02.71-.87 3.74-1.88 8.81-2.41 10.09-3.95 15.93-5.66 24.94-.9 4.52-2.01 4.74-3.74 2.48-1.68-2.12-4.95-8.56-5.44-9.62-.62-.97-2.21-3.38-6.47-7.2a33.4 33.4 0 0 0-5.65-3.79c-1.05-.78-2.6-1.76-3.69-3.71-.19-.47-.4-.94-.3-1.32m-124.92 228.04c2.89 2.89 3.63 4.72-.36 4.86-2.73-.04-3.19.07-4.47-2.7-.86-1.85-17.43-22.4-26.32-45.05-7.07-14.86-16.36-33.36-23.15-57.72-5.29-14.65-6.92-29.46-9.26-48.18-2.08-12.07-5.45-28.28-6.42-62.27-.89-20.21-1.36-34.42.21-45.96 1.06-7.69 1.03-19.37 3.72-27.87 2.68-8.5 4.94-12.15 6.59-14.67 3.64-3.67 7.37-3.02 9.73-1.12 5.13 3.58 7.51 6.42 12.15 15.12 4.25 9.06 9.31 24.49 14.65 43.97.71 3.45 2.58 7.08 3.88 9.57 1.27 2.53 2.61 2.2 3.32-1.25.57-2.78.7-7.36.42-12.88-.4-8.84 1.73-17.62 1.92-26.69-.23-6.52.59-15.23 1.75-31.11-.09-13.87 1.72-25.34 5.77-47.53 3.51-16.14 7.27-30.5 11.49-37.37 4.23-6.86 9.39-11.23 11.55-11.73 2.13-.63 5.13.08 7.23 2.45 3 3.2 4.61 7.36 6.17 18.07.77 7.38.14 18.27-1.37 32.23-1.89 15.62-3.46 26.05-3.42 36.24.1 6.97.57 9.48 2.88 9.86 2.06.5 3.37-.68 4.39-2.72 1.34-2.51 11.67-18.99 30.55-48.82 12.58-19.88 27.15-34.64 34.82-44.56 5.11-6.62 19.57-22.15 40.3-36.06q20.73-13.91 26.31-14.53c7.67-2.63 9.18 3.35 8.23 6.92-.97 3.38-4.62 12.72-10.18 25.34-4.09 10.38-13.17 23.11-16.89 29.41-2.94 4.82-28.79 50.12-30.42 53.17-17.38 34.21-27.53 43.56-52.63 88.65-12.39 20.67-27.35 51.86-33.78 68.65-6.43 16.78-16.36 47.65-18.09 58.2-2.5 12.78-5.67 46.59-4.64 57.43.6 7.1 2.11 10.93 3.52 14.12.34 2.87.22 3.7-.85 3.63-1.07-.08-2.72 1.32-4.67-6.08-1.88-6.12-3.14-21.82-1.6-44.78 1.02-15.31 8.01-47.15 17.5-72.2q9.48-25.04 31.85-69.59c20.63-38.6 45.44-75.03 60.68-103.27 11.48-20.33 28.27-49.13 45.58-80.64 3.97-8.12 6.95-14.81 8.37-21.35.68-2.48-.3-3.38-4.2-1.49-7.41 3.05-22.89 12.06-25.69 15.1-7.27 5.3-24.14 18.82-32.69 29.78-5.47 6.16-15.5 17.52-26.07 31.01-7.03 9.53-16.82 25.11-29.23 46.43-8.65 13.77-13.66 22.11-16.52 23.61-1.91.99-8.86 3.34-11.39-7.09-1-5.34-1.06-9.4-.65-14.33.06-3.17.9-10.12 3.23-25.9 1.55-10.53 2.3-19.66 2.28-28.52-.18-6.7-.01-13.31-4.22-22.07-1.91-4.09-4.76-1.9-6.48.54-2.1 2.97-4.64 6.33-8.36 12.84-.9 3.07-3.49 9.43-5.16 16.59-1.54 5.67-3.39 14.69-6.03 27.85-2.17 12.22-3.27 21.31-3.27 24.43-.03 2.71-.02 10.6-.88 22.14-.86 11.55-1.72 43.16-1.66 43.41-1.05 12.3-2.28 17.09-.41 24.04 1.71 4.02 1.48 4.64-.48 6.09-3.19 2.6-5.06 2.25-6.1-.24-.82-2.17-6.36-12.18-10.83-28.1-2.99-10.62-7.57-24.51-12.12-35.2q-4.54-10.69-9.86-16.49c-1.9-2.29-4.71-3.34-7.14 1.64-1.88 3.21-5.15 10.01-6.47 20.94-1.34 9.74-3.32 26.36-3.1 29.36.39 6.9-.25 12.22-.55 25.75.43 8.81 1.48 27.1 5.03 54.25 2.44 19.94 5.82 39.71 8.78 51.36 2.32 8.32 7.53 24.5 16.45 48.97 6.56 15.52 13.66 27.76 19.43 38.79 4.64 7.24 8.86 15.23 14.66 22.86zm227-360.88c2.23-1.11 2.36-3.72-2.74-3.3-4.21.18-10.29 2.72-19.7 10.12-20.97 14.47-27.59 19.13-42.57 35.56-10.09 11.06-18.14 20-25.41 27.12-7.36 7.3-15.92 17.87-33.11 43.72-17.2 25.85-26.08 49.8-31.81 65.64-5.63 12.9-15.77 41.77-14.27 87.1 2.48 32.85 9.42 40.49 19.33 48.39 18.12 9.46 34.2 5.03 47.27-5.85 9.41-7.81 22.16-24.49 33.77-47.68q11.77-23.64 20.57-50.67c6.86-23.25 13.01-46.45 18.64-69.6 4.24-17.08 12.12-46.62 23.28-87.72.87-4.18 2.13-12.38 3.35-15.91 1.56-3.95 3-3.1 4.36 2.47 1.35 5.57 3.03 24.41 3.02 24.7-.01.28 5.33 35.75 8.49 46.89 1.63 7.18 3.44 19.62 18.12 33.31 2.84 3.23 3.6 3.7 1.89 6.04-6.12 8.32-22.59 41.46-42.31 91.85-10.07 27.71-13.34 39.41-17.07 54.75-3.74 15.3 3.57 18.07 5.05 19.06 3.5 1.95 11.55 1.7 20.39-9.89 5.9-7.72 16.84-23.77 35.6-50.99 13.02-18.24 31.42-36.05 42.77-45.47 7.56-6.28 17.99-15.27 27.09-20.83 4.63-2.11 6.52-2.68 7.02-2.29.97.95.86 1.74.13 3.88-2.39 6.02-7.64 20.67-8.76 23.03-1.11 2.37-20.8 43.08-24.81 51.65-4.01 8.58-14.93 33.38-17.95 43.62-2.02 6.82-9.4 22.83-1.98 31.76 4.47 6.08 11.89 9.74 21.04 9.05 11.02-.65 18.13-5.8 24.79-11.71 4.23-3.72 2.93-5.41.18-4.17-4.58 3.44-9.53 7.09-11.35 7.95-2.77 1.54-10.16 4.16-15.16 4.01-3.06-.21-12.39-.21-15.52-9.93q-2.95-10.05 0-18.3c5.15-12.82 10.23-25.45 14.54-36.63 4.26-8.98 13.97-28.59 26.22-54.54 8.42-17.56 12.4-29.01 13.8-32.94 1.72-4.52 2.98-10.2-1.99-11.81-4-1.23-4.83-.41-10.94 2.94-6.11 3.34-38.37 25.24-62.59 55.56-15.66 19.7-29.09 38.64-43.22 59.98C0 139.7-3.56 141.35-6.54 141.19c-3.47-.44-5.47-2.28-4.01-13.49 1.85-10.44 7.1-29.22 17.46-57 8.21-21.54 21.3-51.38 39.65-87.08 3.66-7.87 4.21-7.71 6.39-6.92 27.35 8.4 54.34-6.66 72.61-64.54 11.61-38.7 17.11-60.3 17.61-65.45.77-5.59-.88-13.63-4.39-15.91-2.47-1.47-6.17.54-10.74 7.12-4.56 6.57-14.84 19.5-24.34 32.57-14.74 17.04-30.94 49.47-48.31 86.2-5.79 12.36-6.73 15.47-10.43 12.54-3.22-2.78-7.98-7.9-13.15-20.87-3.35-10.26-6.54-24.06-8.85-38.98-1.28-9.63-2.92-25.6-6.46-47.76-1.43-8.06-4.34-9.33-6.43-10.27-3.53-.89-3.56.47-4.18 6.9-1.29 4.02-6.85 25.35-8.46 31.54q-1.86 9.04-25.22 96.98c-8.3 29.45-16.73 58.69-26.64 85.58-2.21 6.31-19.84 44.68-38.56 59.5-12.29 11.41-35.6 18.93-50.31.14-7.77-13.13-8.77-20.77-10.36-45.5.48-19.54 2.96-33.93 5.71-50.67 4.05-14.32 9.81-33.41 22.53-61.55 9.28-18.85 20.87-36.72 28.52-46.58 5.01-7 18.23-23.01 40.33-47.5 14.73-16.32 26.5-26.61 34.29-31.52 5.15-3.52 11.25-8.19 18.52-12.8 5.01-2.89 10.16-5.46 15.44-7.69m121.28 11.39c2.4-4.2 5.39-1.39 5.59 2.54.2 3.94-.56 5.47-2.29 12.91-2.19 9.84-9.44 36.7-11.67 43.35-2.77 8.22-7.14 22.27-17.32 44.02-6.16 11.06-11.33 18.6-22.22 25.04-8.77 5.49-16.95 7.31-27.94 6.05-5.32-.85-3.89-2.76-3.11-4.91 4.06-6.37 17.49-31.33 20.49-38.49 5.37-11.08 10.92-26.86 26.04-47.31 10.07-13.62 18.85-26.21 25.16-33.37 2.5-3.26 4.84-6.67 7.27-9.83" style="fill:#000" transform="translate(286.12 260.012)"/></svg>