<svg xmlns="http://www.w3.org/2000/svg" width="2048" height="1694.11" viewBox="0 0 553.79 458.1"><path fill-rule="evenodd" d="M-122.96-226.96c5.82 2.29-6.32 12.18-10.32 16.33-4.09 4.27-10.95 13.29-20.74 27.86-8.1 11.2-17.14 23.6-27.06 36.72-6.91 9.42-17.04 23.24-26.23 35.94-6.19 8.73-14.65 20.07-20.96 31.02-5.11 9.95-13.39 22.71-14.1 35.61-.44 5.03-1.1 10.63 4.88 14.57 3.54 2.26 9.47-1.24 15.57-3.88 4.36-2.02 20.58-10.94 42.27-22.5 14.46-7.71 30.53-17.49 48.06-25.87 12.18-5.34 21.93-7.72 28.29-8.07 4.24-.23 13.5-.04 20.48 5.64 6.06 4.73 7.55 8.79 6.25 20.42-1.06 7.66-2.54 16.73-6.01 26.88-2.31 6.78-7.03 19-12.72 31.92q-5.7 12.91-15.36 33.56c-1.93 3.45-.97 5.05 1.78 3.53q2.76-1.53 20.61-14.61C-77.64 10.49-67.7 2.38-56.63-4.93c13.57-9.43 30.03-21.75 36.76-25.57 6.7-4.69 20.67-13.8 45.24-30.89 10.14-7.6 10.29-7.61 11.86-6.02.75.8 2.64 2.05 3.64 2.16 3.02.88.62 1.46-2.37 1.95-1.24.34-2.91 1.56-4.85 3.56-1.62 1.91-5.08 6.26-10.45 13.22C17.03-38.74 5.53-23.19-2.12-7.76c-5.1 10.3-9.93 21.18-12.1 34.48-2.15 11.49.69 20.28 10.85 14.38 5.83-2.72 18.24-10.57 25.17-18.42 5.63-5.24 21.62-19.81 42.21-45.44 13.73-17.09 22.41-30.13 27.41-38.35 3.61-5.03 10.51-17.65 19.77-39.19 1.52-3.57 2.15-3.94 4.46-2.28 2.18 1.56 2.69 2.87 1.22 5.25-4.45 7.48-18.24 38.49-22.02 47.72-2.94 6.79-12.24 26.72-28.35 59.79q-7.73 15.26-.12 7.41c6.3-4.5 11.33-11.75 25.89-11.1 10.88.24 19.76 9.8 21.83 23.78.72 8.3-.01 11.27-.31 15.02-.4 2.4 2.96 2.76 5.12-.71 1.45-2.31 5.97-6.88 10.88-10.88 4.2-2.9 14.76-12.25 26.14-16.08 2.73-.51 9.07-.43 12.39 6.79 1.87 3.28 2.6 6.35 2.15 8.58-.37 1.79 3.98 3.78 5.2 1.15 1.59-1.49 4.18-3.32 6.54-4.5 1.73-.63 7.96-5.47 20.12-7.92 7.9-1.38 15.06 2.54 21.41 8.99 4.33 4.35 5.83 6.19 7.61 11.81 1.24 2.55 4.41 6.87.57 7.02-2.56-.35-4.26-3.02-5.07-8.04-.97-3.73-4.98-8.32-9.96-11.62-4.84-3.17-14.46-4.39-24.18-.42-6.29 2.69-15.56 8.54-22.48 15.39-.97 1.38-1.51 2.81-4.8-.27-2.2-2.05-2.79-3.61-1.41-5.4 1.63-2.01 1.94-3.07 1.77-6.82-.42-3.36-.81-7.32-4.13-9.37-4.44-1.39-7.14.32-10.69 2.4-5.01 2.67-19.77 12.94-24.77 18.82-3.34 3.92-7.72 8.37-11.36 13.94-1.5 3.38-2.36 5.42-3.21 7.34-1.15 2.93-2.28 3.95-4.83.23-2.32-3.14-3.33-4.05-1.2-5.9 2.02-1.87 3.99-3.64 3.89-8.6 0-3.23.36-10.24.59-18.26-1.19-8.02-1.59-16.87-14.33-21.76-7.71-1.51-15.61 2.44-21.73 5.78-4.49 3.12-10.97 9.81-18.76 19.37-4.66 6.53-8.94 13.49-13.91 23.46-6.93 15.52-14.29 28.09-37.92 66.96-15.88 26.99-31.95 50.77-43.95 67.15-12 16.39-16.57 21.33-23.64 28.1-6.99 7.33-10.39 10.98-13.9 7.11-2.1-3.02-1.8-5.66-.25-8.64 1.19-2.65 4.45-10.13 10.92-20.72 4.19-7.25 19.65-29.78 46.68-67.3 17.25-25.57 33.44-46.42 41.68-58.12 5.41-8.73 13.27-20.93 23.57-33.84 5.56-6.02 9.1-10.02 12.27-20.6 2.69-6.56 5.52-11.55 6.65-13.84q.99-2.54 10.98-22.91l12.8-25.68c1.1-4.6.38-6.36-2.81-.62Q80.7-37.55 73-28.35C62.14-13.64 49.4 1.93 34.34 16.41 23.16 28.02 2.49 46.49-8.26 47.95c-7.27.11-11.35-7.77-11.28-15.52.06-5.16 1.41-18.11 9.57-34.75 5.44-11.1 11.1-21.99 18.27-31.69q7.16-9.69 10.8-14.55c2.43-3.38.57-4.54-3.2-1.78q-6.06 4.77-29.34 20.48C-41.62-10.77-67.52 7.38-92.01 25.65c-14.17 10.43-18.99 12.7-25 17.5-2.6 2.06-3.61 3.41-5.56 6.25-.95 1.9-4.63 10.62-11.86 22.15-8.53 14.9-34.56 49.47-44.25 59.67-7.4 9.55-24.84 28.79-45.77 42.8-13.86 9.02-20.87 11.25-27.19 9.83-5.81-1.27-9.74-4.44-7.34-14.6 2.78-6.88 11.61-19.31 25.62-34.36q14.02-15.05 31.48-29.74c14.2-12.11 28.62-24.23 45.14-36.11 10.19-8.22 19.14-15.97 28.32-22.45 6.12-4.32 7.75-4.67 9.75-8.41 1.33-1.17 12.51-25.62 33.52-77.14 2.38-8.77 5.14-19.51 5.2-31.71-1.41-12.29-12.57-14.76-18.94-15.14-15.63.62-34.02 8.85-54.19 19.79-17.04 9.67-37.47 21.71-55.13 30.61-15.73 8.38-26.89 14.48-34.51 7.5-5.07-3.74-3.59-19.02-.39-29.75q3.63-11.03 15.21-28.41c12.85-19.13 26-38.12 39.97-56.73 13.03-17.58 29.32-40.22 52.38-73.66 3.7-5.46 8.55-12.85 12.59-10.5m-42.07 135.44c-5.51.89-7.18 5.45-.6 7.35 5.12.56 7.26-6.02.6-7.35m-16.42.51c3.64.52 4.1 5.63-.88 5.81-5.09-.55-4.1-6.9.88-5.81m48.12 145.53-3.12 2.78q-4.91 4.1-13.2 10.91c-8.01 6.8-12.16 10.49-18.33 14.73-9.38 6.28-16.81 13.64-25.45 20.46-12.5 10.12-21.55 18.83-28.06 25.52-10 9.53-16.91 18.09-21.08 23.85-6.26 8.63-9.34 14.52-10.71 16.93-1.47 2.52-2.33 6.15-1.91 6.64 1.51 3.53 6.52 3.87 15.53 1.51 11.12-4.01 21.07-12.91 31.17-21.33 14.59-12.42 22.49-22.56 29.94-31.43 12.47-14.15 21.6-25.67 28.12-35.77 7.94-11.08 13.73-20.59 21.29-32.22 2.29-4.34-.84-5.72-4.19-2.58m62.64 160.22c-2.84 6.24-5.17 10.64-.46 6.98 3.26-2.78 8.25-5.5 16.24-15.9q7.99-10.4 23.93-32.57c6.95-10.79 13.7-21.69 20.76-32.38 5.01-7.35 9.23-15.16 14.34-22.04 6.67-11.11 9.12-15.48 16.39-27.62 4.84-8.09 8.13-16.92 11.96-22.23 2.44-5.93 1.89-7.2-2.26-1.15-4.46 7.16-13.3 19.48-23.52 32.86-8.91 13.09-27.65 39.92-33.75 47.36-2.81 4.62-13.27 17.87-27.93 41.27-5.23 8.47-10.56 16.03-15.7 25.42M-236.93 30.57c-.75 2.07-2.04 3.84-3.5 5.92-1.06 1.5-1.29 2.96-.54 4.28.47.77 5.9 7.44 6.28.25.02-.54.72-1.85 1.03-2.23 1.21-1.46 6.93-9.77 14.64-17.16 5.72-5.31 9.69-7.72 14.29-11.9 3.07-2.79 5.49-4.62 7.77-3.89 3.29.87 2.61 3.53 2.4 5.04-.52 5.29-4.27 14.67-9.48 23.06-4.14 6.68-12.43 16.24-25.9 27.71-8.99 7.65-22.55 12.2-31.55 8.15-6.55-3.48-11.07-7.41-10.39-22.52 1.27-10.71 2.14-16.58 9.43-25.57 4.86-6 9.36-7.8 12.37-7.02 2.78.7 5.19 2.73 5.81 3.36 1.86 1.36 5.59 5.09 7.11 8.65.84 1.5.76 2.75.23 3.87m4.33-8.95c-3.66-4.24-7.08-8.91-15.8-11.72-9.43-1.44-13.71.66-19.83 8.74-5.14 6.64-7.91 14.08-8.45 21.27-.69 12.91-.24 16.37 3.36 23.44 2.39 4.71 10.44 12.65 19.98 12.7 9.91 1.17 29.85-10.59 40.53-23.37 7.12-8.52 17.27-19.98 21.5-32.02 2.82-8.03 3.73-17.94-2.68-19.41-3.47-1.58-7.64-3.1-16.12 5.49-5.55 5.15-10.72 8.62-13.52 11.3-1.87 1.35-3.38 3.1-4.47 4.6-.73 1.44-1.88 1.47-4.5-1.02m424.04 81.96c3.02-2.21 4.19-3.27 5.47-2.88.92.25 2.66.93 4.4 2.17 1.63 1.24 1.42 1.83-.02 2.52-1.84 1.27-6.14 4.4-11.23 9.28-3.05 2.99-5.11 5.27-6.92 7.76-1.8 1.94-2.96 4.6-.6 6.65 3.64 2.64 3.94 1.8 7.14-.12 2.6-1.39 10.27-5.28 16.84-12.43 4.38-4.77 6.95-7.13 7.9-6.53 2.23.59 3.55 2.28 2.76 5-.71 1.81-2.14 5.56-4.2 10.7-1.21 3.27-2.98 7.88-5.51 13.91-.67 1.83-.83 2.86 1.46 2.98q2.29.12 4.93 2.27c.99 1.01 2.5.46 3.32-1.9 1.03-3.43 2.05-6 5.43-8.37 2.26-1.58 3.9-3.91 7.91-9.71 2.8-3.99 4.07-9.03 7.93-12.09q4.08-3.34 6.95-.88c.89.7 2.43 1.9 7.39 2.28 4.39.34 7.01 2.79 4.15 7.04-1.79 3-3.98 7.13-7.67 10.2-3.41 3.26-10.87 4.38-14.71 1.21-2.41-1.62-4.09-1.27-6.17 1.54-3.55 3.93-5.52 4.71-6.77 8.69-.91 2.77-1.24 3.89 3.21 4.37 3.53.24 7.74-.15 14.56-3.8q6.83-3.91 9.93-4.7c1.27-.22 3.03-2.83 4.66-4.74 1.08-1.26 4.74-5.91 11.14-8.88 4.26-1.99 5.72-1.64 6.94-.71 2.09 1.98.04 2.96-1.65 3.33-1.22.29-3.1 1.51-5.39 3.52-1.13 1.35-.76 2.38 1.21 3.1 4.2 1.57 3.59 2.44 1.81 5.18q-1.78 2.74-5.1 12.72c-.59 2.8-2.45 7.42 2 5.11 2.29-1.32 3.46-1.82 5.92-4.56q2.46-2.74 5.43-1.98c1.5.17-.42 2.68-1.62 3.9-4.4 5.54-8.51 8.86-13.99 11.28-5.25 2.86-9.06 2.35-15.91-1.02-4.83-1.69-5.52-2.91-2.44-6.07 1.83-2.34 3.26-4.48 5.12-7.7 1.33-3.53 1.94-6.47-.25-7.39-.75-.27-2.32.45-4.26 1.82-2.71 1.57-10.37 5.2-14.03 5.52-2.02.36-3.72.75-4.71 1.3-1.06.93-1.77.85-1.84-.68.27-.49-3.5-3.78-6.25-3.58q-2.75.2-2.95 5.8c-.4 4.28-.84 10.61 3.68 6.75.64-.74 1.48-3.56 2.25-4.24 1.07-1.76 3.09-.17 2.84 1.42.14 1.57-.42 4-2.53 5.94-1.29 1.59-5.78 7.16-8.56 3.73-2.4-2.19-3.44-4-2.32-8.01.38-3.43 1.93-9.16-.85-9.62-2.06-.36-4.15 1.68-6.45 5.33-1.38 4.26-7.23 8.96-10.13 4.42-1.63-2.51-1.58-4.38 3.55-7.89 3.38-2.58 4.89-6.13 5.64-8.09.5-1.31 3.84-8.59 6.73-12.87 3.06-4.73 2.69-6.87 1.07-7.88q-1.62-1.02-6.17 3.3l-12.78 10.33c-1.06 1.1-1.74 2.65-1.77 4.8.15 1.27.78 3.3 1.25 6.66.74 3.19-2.65 3.85-4.81.09-2.17-3.77-2.61-6.06-2.27-9.07.37-3.51-.07-6.94-1.64-7.97-1.89-1.66-2.98-1.05-5.28 1.63-4.11 5.3-9.76 13.67-17.31 25.68-3.21 7.06-6.46 7.05-6.03 3.25 1.05-3.42 4.81-9.43 8.73-15.34 3.02-5.12 12.06-18.34 23.71-33.32 2.43-3.2 4.84-6.42 7.73-9.46m47.35 19.96c-1.58 1.24-2.59 3.34-2.02 5.81 1.3 3.06 5.73 1.38 7.51.29 4.25-2.49 7.94-5.79 7.13-9.87-1.97-1.65-4.25-1.13-7.07.44-2.38 1.07-4.27 2.2-5.55 3.33m21.6 11.25c-3.27 4.26-7.32 6.97-7.56 10.98-.47 4.13-1.94 7.9-2.98 11.3q-1.05 3.4 2.92 4.89c1.72.21 3.62-.03 4.77-5.02.59-3.32 2.1-7.06 3.26-11.68.76-2.97.64-4.84 1.38-6.74.64-2.03.85-3.57.33-4.01-.62-.48-1.13-.43-2.12.28" style="fill:#000" transform="translate(276.953 227.405)"/></svg>