<?xml version="1.0" standalone="no"?>
<!DOCTYPE svg PUBLIC "-//W3C//DTD SVG 20010904//EN"
 "http://www.w3.org/TR/2001/REC-SVG-20010904/DTD/svg10.dtd">
<svg version="1.0" xmlns="http://www.w3.org/2000/svg"
 width="863.000000pt" height="709.000000pt" viewBox="0 0 863.000000 709.000000"
 preserveAspectRatio="xMidYMid meet">

<g transform="translate(0.000000,709.000000) scale(0.100000,-0.100000)"
fill="#000000" stroke="none">
<path d="M8288 6906 c-44 -7 -85 -20 -96 -29 -10 -9 -25 -17 -32 -17 -20 0
-130 -45 -181 -75 -24 -13 -52 -25 -62 -25 -10 0 -39 -11 -65 -24 -26 -13 -72
-31 -102 -41 -30 -10 -68 -29 -83 -41 -16 -13 -37 -24 -47 -24 -11 0 -24 -8
-29 -19 -9 -15 -18 -18 -54 -14 -37 4 -48 1 -72 -21 -15 -14 -36 -26 -46 -26
-20 0 -87 -32 -131 -62 -14 -10 -39 -18 -55 -18 -15 0 -44 -8 -63 -19 -19 -10
-62 -26 -95 -35 -33 -10 -71 -25 -85 -34 -14 -9 -43 -25 -65 -37 -26 -13 -39
-26 -39 -38 2 -15 -4 -16 -31 -11 -23 4 -45 0 -73 -15 -23 -12 -50 -21 -60
-21 -11 0 -25 -6 -31 -14 -6 -7 -24 -16 -39 -20 -15 -3 -38 -14 -52 -25 -19
-15 -22 -22 -12 -34 11 -12 2 -15 -61 -19 -87 -6 -136 -29 -144 -70 -4 -23
-11 -28 -33 -28 -18 0 -29 -6 -32 -18 -5 -16 -17 -19 -82 -20 -91 -2 -112 -11
-121 -53 -4 -17 -14 -33 -23 -36 -10 -4 -31 -17 -49 -30 -29 -22 -32 -23 -41
-7 -12 22 -42 11 -42 -16 0 -18 -2 -19 -21 -8 -17 11 -22 10 -33 -4 -12 -17
-14 -17 -32 3 -10 12 -34 28 -52 36 -28 12 -36 11 -62 -2 -39 -20 -74 -68 -96
-133 -11 -29 -32 -65 -49 -81 -32 -30 -132 -90 -121 -73 10 17 -21 34 -53 27
-32 -7 -68 -50 -51 -60 19 -12 10 -21 -45 -48 -30 -15 -55 -23 -55 -18 0 5
-13 12 -30 16 -33 7 -125 -30 -151 -61 -12 -15 -11 -19 8 -31 22 -15 19 -17
-75 -62 -53 -25 -99 -49 -102 -53 -3 -3 -22 -9 -43 -13 -21 -4 -50 -18 -65
-30 -15 -12 -58 -38 -97 -57 -38 -19 -92 -47 -120 -62 -27 -15 -41 -21 -31
-12 11 9 23 16 28 16 4 0 8 9 8 20 0 30 -45 37 -78 13 -39 -29 -41 -53 -5 -53
l28 -1 -24 -19 c-13 -11 -34 -20 -48 -20 -31 0 -60 -15 -98 -50 -16 -15 -75
-52 -130 -80 -147 -77 -164 -87 -180 -100 -20 -16 -19 -4 4 61 25 71 92 227
111 259 34 56 72 145 86 200 9 36 29 90 45 120 16 30 29 67 29 81 0 14 11 40
25 59 14 19 25 42 25 52 0 10 9 35 20 55 11 21 20 45 20 55 0 9 9 32 19 50 11
18 25 60 31 93 7 33 23 85 35 115 13 30 31 84 40 119 9 36 23 74 31 85 20 29
18 44 -13 72 -54 50 -78 57 -138 39 -30 -8 -73 -30 -97 -48 -24 -19 -58 -39
-76 -45 -50 -17 -235 -216 -306 -327 -17 -27 -47 -66 -66 -86 -19 -20 -51 -58
-70 -84 -39 -52 -69 -92 -148 -192 -30 -38 -76 -102 -103 -143 -27 -41 -65
-99 -84 -128 -19 -29 -35 -55 -35 -58 0 -7 -28 -42 -98 -124 -23 -28 -42 -59
-42 -70 0 -10 -18 -39 -39 -64 -22 -25 -43 -56 -47 -68 -4 -13 -17 -35 -29
-50 -13 -15 -31 -49 -41 -75 -9 -26 -27 -59 -40 -73 -12 -14 -41 -63 -64 -110
-24 -47 -60 -106 -81 -131 -38 -46 -69 -107 -83 -163 -7 -30 -42 -77 -92 -127
-38 -39 -64 -81 -64 -106 0 -18 -7 -23 -37 -28 -61 -9 -108 -37 -112 -65 -2
-18 -24 -39 -82 -78 -64 -42 -86 -52 -121 -52 -48 0 -108 -31 -108 -55 0 -10
10 -15 32 -15 32 0 32 -1 -29 -42 -34 -24 -98 -69 -143 -102 -44 -32 -104 -66
-131 -76 -58 -21 -72 -31 -115 -80 -28 -31 -33 -33 -48 -21 -15 13 -20 11 -39
-8 -15 -16 -18 -25 -9 -28 22 -8 13 -21 -25 -34 -66 -21 -113 -49 -161 -95
-26 -25 -87 -65 -137 -90 -49 -25 -103 -56 -120 -68 -28 -20 -32 -20 -62 -6
-22 11 -34 26 -43 55 -7 22 -20 48 -30 57 -9 9 -25 49 -35 90 -10 40 -26 85
-36 100 -11 14 -19 33 -19 43 0 9 -6 28 -14 43 -7 15 -17 50 -21 77 -4 28 -11
55 -16 61 -5 7 -17 52 -25 100 -9 49 -20 111 -24 138 -5 27 -12 157 -15 290
-3 133 -8 313 -10 401 -2 88 -4 193 -4 233 -1 65 -4 76 -27 99 -22 22 -31 24
-66 19 -23 -4 -54 -16 -70 -28 l-30 -21 5 -311 c4 -246 8 -324 21 -371 12 -42
15 -80 11 -130 -4 -50 0 -99 15 -173 11 -57 20 -116 20 -132 0 -35 22 -120 44
-172 9 -20 26 -88 38 -150 14 -70 29 -119 40 -130 10 -10 18 -30 18 -45 0 -16
9 -44 19 -63 35 -63 81 -159 81 -167 0 -4 -16 -19 -35 -32 -59 -40 -95 -82
-95 -112 0 -30 -37 -67 -101 -99 -20 -11 -83 -56 -138 -100 -56 -44 -127 -94
-159 -111 -31 -17 -66 -39 -77 -49 -11 -10 -33 -22 -50 -26 -16 -4 -46 -15
-65 -24 -91 -46 -82 -87 18 -77 68 6 107 24 187 87 34 26 72 53 85 60 14 7 43
29 65 49 22 21 69 55 105 76 68 41 204 137 272 193 22 17 45 32 51 32 11 -1
102 -118 159 -207 15 -23 44 -51 65 -62 21 -10 58 -41 83 -67 26 -27 68 -58
99 -71 30 -14 60 -31 66 -39 21 -29 143 -55 275 -60 109 -4 200 -18 200 -31 0
-3 -16 -19 -35 -37 -24 -23 -35 -42 -35 -62 0 -40 14 -58 36 -51 11 4 5 -5
-13 -21 -53 -45 -85 -150 -63 -207 9 -24 8 -32 -13 -54 -21 -23 -25 -39 -30
-121 -3 -58 -12 -113 -24 -140 -16 -41 -18 -75 -16 -373 1 -279 4 -332 17
-352 9 -14 16 -42 16 -63 0 -50 27 -130 54 -162 12 -14 29 -42 39 -62 9 -21
20 -38 25 -38 4 0 30 -20 57 -45 27 -25 64 -53 82 -62 18 -8 33 -19 33 -23 0
-11 113 -47 171 -55 57 -7 212 17 294 46 101 35 226 98 315 159 91 62 282 242
340 320 19 26 69 89 111 141 41 52 88 114 103 139 14 25 52 81 83 125 31 44
75 114 98 155 23 41 61 109 85 150 24 41 55 98 70 126 15 28 36 64 47 80 11
16 58 101 103 189 45 88 102 194 126 235 24 41 58 109 75 150 17 41 39 84 49
95 10 11 21 34 25 52 3 18 19 48 35 68 16 20 34 53 41 73 6 20 22 55 34 77 13
23 31 70 40 105 9 36 27 81 40 100 13 19 39 67 56 105 18 39 45 91 61 116 16
26 37 72 48 103 10 31 36 90 56 131 27 55 35 82 31 104 -5 22 -2 30 11 34 20
5 106 165 117 217 4 19 18 53 31 75 34 59 85 206 78 227 -4 14 0 18 16 18 14
0 24 8 28 23 3 12 22 54 42 92 21 39 48 102 60 140 13 39 29 77 36 85 7 8 16
29 20 45 4 17 15 40 25 53 9 12 20 41 24 63 4 23 18 57 31 77 13 19 24 40 24
46 0 16 76 169 146 293 35 61 71 133 80 160 9 26 27 57 39 69 13 12 26 35 29
51 4 17 17 39 28 49 21 19 21 19 14 -6 -25 -84 -27 -108 -16 -190 6 -47 15
-119 20 -161 5 -41 16 -93 24 -115 9 -21 20 -70 25 -108 12 -83 30 -105 86
-107 84 -4 105 20 105 113 0 30 12 86 29 137 17 47 39 130 50 184 11 54 27
109 35 122 8 12 18 47 22 76 3 30 15 68 25 85 11 17 26 63 35 102 18 80 50
137 39 69 -12 -72 -8 -327 5 -342 7 -8 30 -20 51 -27 38 -11 41 -10 73 21 30
29 34 39 39 109 4 42 11 94 17 115 11 36 12 37 33 22 35 -25 92 -19 116 11 25
31 26 55 7 92 l-14 27 217 1 c220 0 273 6 376 44 124 46 192 74 215 90 14 9
43 23 65 30 22 7 51 21 65 30 14 10 45 26 70 37 25 11 51 27 59 36 7 10 18 17
23 17 5 0 52 29 104 66 53 36 105 69 117 74 12 4 42 29 67 55 25 26 81 74 125
106 44 32 87 66 95 76 8 9 28 28 44 42 99 87 127 117 205 221 139 185 156 236
102 291 -32 32 -38 32 -153 15z m-18 -155 c0 -5 -7 -14 -15 -21 -8 -7 -15 -17
-15 -22 0 -24 -87 -133 -160 -199 -44 -41 -94 -93 -111 -116 -16 -24 -36 -43
-44 -43 -8 0 -26 -16 -41 -35 -14 -19 -35 -35 -46 -35 -10 0 -43 -22 -71 -49
-29 -27 -79 -66 -112 -86 -33 -21 -69 -48 -81 -59 -11 -12 -53 -38 -92 -59
-52 -27 -72 -43 -72 -57 0 -17 -7 -20 -52 -20 -44 0 -71 -9 -153 -49 -163 -81
-270 -107 -495 -117 -120 -6 -115 -7 -325 57 -16 5 -44 9 -62 9 -33 0 -63 22
-63 46 0 8 6 14 14 14 13 0 178 82 201 100 6 4 21 11 35 15 37 11 231 97 371
165 68 33 130 60 138 60 8 0 80 32 160 71 80 40 163 78 184 85 21 7 48 20 60
29 12 8 30 15 40 15 10 0 39 11 65 24 26 13 81 36 122 50 41 15 81 32 89 39 7
7 35 17 60 23 68 17 148 50 166 68 9 9 28 19 43 22 15 4 34 12 42 20 44 37
220 82 220 55z m-3831 -543 c-22 -43 -28 -56 -53 -129 -14 -41 -28 -94 -32
-119 -4 -25 -19 -68 -35 -96 -16 -28 -29 -57 -29 -64 0 -6 -9 -23 -20 -37 -11
-14 -20 -37 -20 -52 0 -14 -16 -55 -36 -91 -19 -36 -42 -92 -50 -124 -9 -33
-24 -77 -35 -98 -10 -20 -19 -51 -19 -68 0 -16 -3 -30 -8 -30 -9 0 -72 -122
-72 -141 0 -8 -14 -45 -30 -83 -16 -38 -28 -72 -25 -74 2 -2 -5 -12 -15 -21
-11 -9 -36 -47 -55 -85 -20 -38 -47 -82 -60 -98 -14 -16 -25 -38 -25 -49 0
-11 -12 -31 -27 -44 -33 -28 -43 -31 -43 -10 0 24 -25 28 -58 11 -34 -17 -43
-35 -35 -65 5 -21 -11 -29 -22 -11 -9 14 -58 13 -73 -2 -19 -19 -14 -38 11
-38 15 -1 0 -12 -43 -33 -36 -18 -99 -53 -140 -78 -41 -25 -109 -65 -150 -88
-93 -52 -133 -76 -188 -112 l-42 -28 6 42 c4 26 17 53 35 72 16 17 29 35 29
40 0 5 10 19 22 32 16 18 19 26 10 35 -9 9 -6 14 11 22 26 14 104 147 113 194
4 22 15 37 30 44 13 6 24 14 24 18 0 4 13 26 29 51 16 24 33 57 37 72 3 16 21
43 39 60 17 18 46 59 64 92 17 34 62 101 100 150 37 50 74 102 82 116 29 55
104 156 161 217 32 34 65 77 74 95 9 17 30 49 46 69 16 20 33 50 39 66 6 17
32 49 60 72 27 22 49 46 49 52 0 30 275 315 335 346 22 12 41 21 43 22 1 0 -3
-10 -9 -22z m1597 -440 c-9 -12 -16 -32 -16 -43 0 -11 -6 -29 -14 -40 -7 -11
-16 -38 -20 -60 -4 -22 -23 -94 -43 -160 -68 -231 -73 -249 -73 -274 0 -14 -5
-33 -10 -41 -7 -11 -10 -3 -11 30 0 25 -3 54 -5 65 -7 30 -5 322 2 387 4 32
12 62 18 67 20 17 161 90 174 91 10 0 9 -5 -2 -22z m-476 -228 c0 -5 -4 -10
-10 -10 -5 0 -15 -19 -21 -42 -7 -24 -25 -57 -40 -73 -16 -17 -34 -46 -40 -65
-7 -19 -20 -46 -31 -59 -10 -13 -18 -30 -18 -38 0 -8 -9 -28 -20 -43 -11 -16
-27 -46 -34 -67 -19 -51 -58 -132 -80 -165 -10 -15 -24 -48 -32 -74 -8 -26
-19 -53 -24 -60 -6 -7 -12 -23 -13 -36 -2 -22 -29 -85 -68 -159 -10 -20 -19
-50 -19 -66 0 -17 -9 -38 -20 -48 -31 -28 -50 -74 -50 -121 0 -33 -7 -51 -28
-76 -60 -70 -75 -98 -74 -144 1 -24 -3 -44 -8 -44 -24 0 -60 -56 -60 -93 0
-26 -10 -51 -35 -87 -19 -27 -35 -56 -35 -63 0 -8 -9 -22 -19 -31 -10 -10 -24
-38 -31 -64 -6 -26 -25 -69 -41 -95 -16 -27 -32 -63 -36 -80 -3 -18 -17 -49
-31 -71 -26 -37 -37 -63 -70 -156 -8 -25 -30 -68 -47 -95 -31 -50 -61 -143
-53 -166 2 -7 -13 -28 -34 -47 -21 -19 -41 -46 -45 -61 -3 -14 -9 -30 -13 -36
-18 -27 -41 -107 -35 -125 5 -15 -3 -31 -29 -60 -20 -22 -36 -49 -36 -59 0
-10 -20 -43 -45 -73 -25 -30 -45 -61 -45 -69 0 -8 -20 -53 -44 -100 -24 -47
-47 -97 -51 -110 -4 -13 -18 -37 -31 -52 -13 -16 -27 -41 -30 -55 -11 -45 -91
-193 -115 -212 -6 -5 -109 -199 -157 -295 -14 -27 -40 -71 -58 -96 -19 -26
-34 -51 -34 -56 0 -13 -130 -217 -175 -273 -19 -25 -45 -60 -58 -77 -12 -18
-56 -76 -97 -129 -210 -268 -382 -412 -568 -474 -31 -10 -75 -25 -97 -34 -25
-10 -75 -15 -136 -16 -79 0 -99 3 -112 18 -8 9 -39 26 -67 37 -49 19 -71 39
-123 115 -10 14 -29 41 -43 62 -34 48 -50 114 -69 288 -21 193 -24 210 -31
221 -3 6 1 21 10 34 29 45 30 95 2 148 -14 26 -26 52 -26 57 0 5 11 26 25 46
29 42 31 66 10 84 -22 18 -19 57 6 71 19 10 21 17 15 56 -5 38 -3 47 16 62 28
23 37 116 15 146 -14 18 -13 22 5 48 14 19 18 36 13 54 -4 19 -1 29 15 40 36
25 25 59 -17 54 -16 -2 -16 1 2 35 8 16 15 41 15 56 0 22 7 31 35 42 19 8 35
22 35 30 0 32 56 78 153 126 193 95 328 209 607 510 80 87 167 203 215 289 12
20 44 66 72 103 29 36 60 81 70 100 10 18 28 48 41 65 13 18 36 61 52 95 15
35 42 83 59 108 17 25 31 51 31 58 0 7 8 25 19 40 35 51 60 97 163 302 57 113
120 237 141 275 22 39 49 97 60 130 20 55 27 62 87 99 131 80 676 390 717 408
23 10 66 34 95 53 29 19 56 35 60 35 5 0 25 11 46 24 20 12 48 27 62 31 14 4
27 11 30 15 12 16 98 60 119 60 12 0 39 11 59 25 20 14 54 30 75 36 45 12 132
63 150 88 6 10 19 20 27 24 25 9 80 8 80 -3z m-311 -63 c-2 -1 -12 -9 -21 -16
-15 -12 -18 -11 -18 3 0 10 8 16 22 16 12 0 19 -1 17 -3z m-1481 -914 c-24
-26 -37 -51 -97 -183 -27 -57 -61 -118 -106 -186 -20 -30 -43 -76 -52 -102 -9
-26 -23 -58 -33 -72 -9 -14 -31 -54 -50 -90 -18 -36 -51 -91 -72 -122 -21 -31
-39 -66 -41 -77 -2 -12 -15 -38 -30 -59 -68 -93 -96 -133 -154 -222 -181 -275
-301 -417 -511 -606 -66 -60 -276 -194 -304 -194 -26 0 -22 15 7 28 14 7 25
20 25 31 0 10 14 45 30 76 17 31 30 71 30 89 0 17 7 40 15 50 8 10 26 55 41
100 23 69 26 86 16 120 -12 48 -3 76 33 100 20 13 25 23 21 41 -5 18 -1 24 19
29 33 8 56 56 62 127 5 49 11 63 39 90 19 18 34 40 34 48 0 9 15 48 34 86 67
139 84 181 97 238 9 42 20 63 36 74 13 8 23 21 23 27 0 7 21 35 48 63 35 38
118 93 342 225 414 246 504 298 514 298 6 0 -2 -12 -16 -27z m-1062 -634 c-39
-30 -69 -83 -96 -164 -12 -38 -29 -83 -37 -99 -11 -21 -12 -34 -4 -50 20 -41
18 -59 -11 -67 -15 -4 -41 -17 -58 -29 -34 -24 -39 -59 -16 -115 14 -34 14
-34 -19 -54 -35 -20 -85 -96 -109 -166 -36 -106 -46 -142 -46 -172 0 -17 -4
-35 -10 -38 -5 -3 -10 -19 -10 -36 0 -22 5 -29 20 -29 15 0 10 -9 -25 -41 -37
-34 -45 -48 -45 -77 0 -22 -8 -44 -20 -57 -11 -11 -22 -35 -26 -52 -5 -27 -3
-32 15 -35 18 -2 14 -8 -26 -35 -56 -37 -158 -58 -238 -48 -27 3 -97 25 -155
48 -103 41 -107 44 -215 152 -106 107 -204 229 -216 270 -9 33 0 43 75 87 39
23 101 64 138 92 36 28 81 60 99 71 19 11 49 30 68 41 20 12 52 36 73 53 21
18 53 38 72 46 18 8 54 30 79 49 25 19 63 44 84 55 21 10 63 38 93 60 30 23
58 41 62 41 4 0 49 29 100 64 52 34 106 69 120 77 14 8 50 30 80 51 29 20 74
47 100 61 26 14 59 35 74 46 15 12 33 21 42 21 9 0 5 -8 -12 -21z"/>
<path d="M1898 4069 c-23 -17 -28 -28 -28 -63 0 -23 6 -50 13 -59 28 -40 153
-28 182 17 18 28 11 76 -17 105 -26 29 -112 29 -150 0z"/>
<path d="M1579 3900 c-56 -29 -64 -44 -50 -90 14 -48 20 -52 81 -52 81 1 129
18 137 50 11 41 5 65 -23 90 -31 28 -94 29 -145 2z"/>
<path d="M2096 3713 c-14 -15 -24 -29 -22 -30 9 -9 88 12 93 24 6 16 5 18 -24
27 -16 5 -28 0 -47 -21z"/>
<path d="M5700 3440 c0 -5 9 -10 21 -10 11 0 17 5 14 10 -3 6 -13 10 -21 10
-8 0 -14 -4 -14 -10z"/>
<path d="M5750 3421 c0 -5 5 -13 10 -16 6 -3 10 -2 10 4 0 5 -4 13 -10 16 -5
3 -10 2 -10 -4z"/>
</g>
</svg>
