<svg xmlns="http://www.w3.org/2000/svg" width="290.000000pt" height="165.000000pt" version="1.0" viewBox="0 0 290.000000 165.000000"><path d="M221 32c0 .5.7 1 1.5 1s1.5-.5 1.5-1c0-.6-.7-1-1.5-1s-1.5.4-1.5 1zM75.6 36.2c-.3 2.4-.8 7-1.2 10.3-.6 6.1-4.3 13.3-18.7 36.3-2.9 4.6-7.6 12.2-10.6 17-3 4.8-8 12.3-11.1 16.7-6.8 9.7-11.4 17.5-10.3 17.5 1 0 17.6-24.8 27.5-41 18-29.3 21-34 21.9-34.5 1.3-.9 1.2.1-2.2 16.8-3 14.5-3.2 15.2-6.8 18.6-5.2 5-6.8 7.8-7.5 13.8-.6 4.8-.5 5.1 1.4 4.6 3-.8 8.7-9.2 10.2-14.9 1.4-5.5 3.1-8 7-10 3.8-1.9 4-1.8 3.3 1.6-.6 2.5-.4 3 1.2 3 1.1 0 3-1.1 4.3-2.5 2.2-2.3 2.5-2.4 4.2-.8 1.5 1.3 2.3 1.4 4.4.5 3.2-1.5 4.4-1.5 3.9 0-.2.7-.9 3.8-1.5 6.9l-1.1 5.6-9.7 6.6c-22.1 15-31.1 24.3-33.3 34.1-1.5 6.7-.3 9.3 4.7 10.2 7.1 1.3 10.4 0 16.9-6.9 7.5-8 11.4-14.5 18.1-30.4l5.3-12.6 7.3-4.5c9.9-6.1 32.6-17.8 53.8-27.7C181.6 58.9 183.7 58 185.1 58c.7 0 3.3-1.2 5.8-2.7 2.4-1.4 5.7-2.8 7.3-2.9 1.5-.2 4.6-1.3 6.7-2.4 2.6-1.3 5-1.8 6.8-1.4 1.7.3 4.9-.3 8.1-1.5 4.3-1.7 5.2-1.8 5.2-.6 0 2.3 2.1 1.8 5.3-1.3l2.9-2.7-.7 3.2c-.8 4 .9 4.4 2.3.5.5-1.5 1.3-3.5 1.7-4.6.7-1.7.4-1.8-3.6-1.1-2.4.3-6.2 1.5-8.4 2.4-2.2 1-5.1 2.1-6.5 2.5-2.1.6-2.2.5-.7-.4.9-.6 1.7-1.5 1.7-2 0-1.2-3.7-1.3-4.4-.1-.3.5-3.1 1.9-6.2 3.1-5.2 2.1-5.7 2.2-6.6.7-.5-1-1.7-1.7-2.6-1.7-2.7 0-6.2 2.9-6.2 5.1 0 1.2-1.1 2.4-2.7 3-1.6.6-8 3.5-14.3 6.4-6.3 2.9-11.6 5.2-11.8 5-.2-.1.2-2.3.9-4.9 1.6-6.3.7-15-1.8-18.3-2.3-3.2-7.1-4.7-10.7-3.3-1.4.5-3.7 2.7-5.1 5-3.2 5-6.4 5.4-9.6 1.1-3.1-4.2-7.1-5.7-10.9-4.1-1.7.7-3.5 2.1-4 3.1-1.6 3-1.1 11.6 1.1 18.5 2.5 7.8 6.5 12.2 12 13 2.1.4 3.9.9 3.9 1.3 0 .3-6.2 3.7-13.7 7.6-7.5 3.8-17 9-21 11.4-4.1 2.4-7.7 4-8 3.7-.4-.4.3-4.7 1.5-9.7 1.2-5 1.9-9.5 1.6-10-.8-1.4-3.1.7-3.8 3.4-.3 1.2-1.5 2.8-2.7 3.6-2 1.2-2.4 1.1-4-1l-1.8-2.4-2.3 2.3c-3 2.7-3.4 2.7-4.1.2-.7-2.5-3.3-2.5-7.4 0-4 2.4-4 2.7-.8-12.3 1.4-6.4 2.5-13.5 2.5-15.8 0-2.9 1.1-6 4-10.9 2.2-3.8 4-7.1 4-7.5 0-1.2-5.5-6.5-6.7-6.5-.6 0-1.4 1.9-1.7 4.2zm4.4 3.6c-.1 1.8-3 6.3-3 4.5 0-.6.3-2.4.6-4.2.7-3.1 2.4-3.4 2.4-.3zm80.8 2.2c1.3 1.3 2.2 3.4 2.3 5.3.4 14.1-1.3 18-9.9 22.4-7.3 3.8-15.1 4.4-20.3 1.7-3.9-2-6.6-8.2-7.5-17.3-.6-6.1-.4-7.4 1.1-9.1 2.5-2.8 4.2-2.5 8.6 1.5 6.3 5.7 10.3 4.7 16.2-3.9 2.2-3.2 6.4-3.5 9.5-.6zm-96.7 60.7c-3.3 6.6-7.1 8.4-5.7 2.9.9-3.6 7-10.4 7.4-8.3.2.8-.6 3.3-1.7 5.4zm27.4 6c-1.2 5.3-8.9 21.6-12.7 27.3-7.9 11.9-15.1 16.9-22.4 15.6-5.9-1.2-6.7-6.4-2.1-14.5 2.7-4.8 6.8-9.1 14.7-15.5 7.4-6 21.1-15.5 22.4-15.6.4 0 .5 1.2.1 2.7z"/></svg>