<svg xmlns="http://www.w3.org/2000/svg" width="1000" height="1000" viewBox="0 0 1000 1000"><path d="M475.587 902.92c-4.363-5.185-10.243-16.017-14.516-26.743-3.773-9.47-4.863-12.916-7.016-22.177-.447-1.925-1.746-7.1-2.886-11.5-4.962-19.155-7.436-40.525-7.35-63.5.027-7.425.061-17.011.075-21.302.034-10.054 2.82-36.94 4.72-45.534.81-3.665 2.112-10.039 2.893-14.164 2.395-12.652 7.506-33.127 10.11-40.5 1.359-3.85 2.513-7.675 2.564-8.5.05-.825.435-1.95.854-2.5s1.432-3.25 2.252-6c1.788-5.995 9.203-24.596 11.76-29.5 1.003-1.925 2.62-5.3 3.593-7.5.973-2.2 3.027-6.157 4.565-8.794 3.153-5.407 3.512-9.766 1.424-17.274-.755-2.713-2.862-11.907-4.682-20.432-1.82-8.525-3.678-15.927-4.128-16.45-.45-.522-.837 3.753-.86 9.5-.052 13.53-.707 25.99-2.021 38.45-1.513 14.35-2.369 17.022-5.925 18.495-10.474 4.338-17.933-7.733-26.564-42.995a2453.456 2453.456 0 0 0-3.975-16c-.907-3.575-1.722-8.075-1.811-10-.156-3.364-.027-3.5 3.337-3.5 3.124 0 3.477.269 3.286 2.5-.291 3.395 2.476 19.03 4.779 27 1.033 3.575 2.827 9.875 3.986 14 2.441 8.685 8.226 21.036 11.05 23.591 2.788 2.523 3.788.996 5.368-8.197 2.28-13.266 2.673-20.61 2.997-55.857.208-22.681.663-34.08 1.368-34.315.58-.193 1.894.097 2.92.646 1.397.748 2.186 3.084 3.149 9.315 1.5 9.707 10.934 54.282 13.772 65.067.698 2.654 1.779 2.12 3.65-1.806 2.711-5.685 18.933-21.77 25.468-25.253 7.262-3.87 14.105-4.81 20.555-2.822 7 2.157 11.082 5.358 20.652 16.194 7.825 8.86 16.16 16.437 18.079 16.437.435 0 .932-10.688 1.106-23.75.279-21.012.533-24.153 2.205-27.25 3.927-7.275 7.278-6.956 15.776 1.5 3.932 3.912 7.378 6.5 8.658 6.5 2.454 0 4.49-3.387 6.26-10.414 1.554-6.175 4.255-7.997 10.647-7.184 2.623.334 7.694.867 11.27 1.184l6.5.576 5.331-4.58c8.547-7.345 11.56-5.216 4.088 2.89-6.225 6.752-9.842 7.428-26.175 4.891-4.145-.644-3.723-1.207-8.173 10.908-3.623 9.86-11.406 9.844-21.773-.045-5.373-5.124-5.996-5.458-7.462-3.992-1.374 1.375-1.583 4.636-1.488 23.178.06 11.868.388 22.683.727 24.033.46 1.833-.048 3.118-2.008 5.078-2.18 2.18-3.17 2.505-5.846 1.92-5.292-1.155-11.267-5.994-20.695-16.76-13.46-15.372-17.339-18.004-26.348-17.877-4.26.06-6.532.608-8.056 1.94-1.167 1.02-3.923 3.065-6.123 4.544-7.808 5.252-24.508 25.793-24.492 30.126.004 1.146 1.38 8.609 3.056 16.584 4.657 22.158 4.93 23.907 9.374 60 .846 6.875 1.767 13.625 2.047 15 .488 2.392 2.576 29.725 4.547 59.5 1.003 15.15 1.285 57.848.49 74-2.518 51.068-12.556 82.529-28.849 90.416-6.052 2.93-8.986 2.689-12.086-.995zm18.445-10.24c6.62-8.692 13.12-30.38 14.89-49.68.58-6.325 1.511-16.45 2.068-22.5 1.272-13.814 1.287-55.509.026-74-.525-7.7-1.415-21.425-1.978-30.5s-1.466-19.875-2.007-24c-.541-4.125-1.673-13.35-2.515-20.5-1.97-16.721-6.407-45.86-8.527-56-.574-2.75-1.457-7.878-1.962-11.395-.504-3.517-1.306-6.784-1.78-7.26-1.834-1.832-20.37 39.819-22.765 51.155-.407 1.925-1.807 5.918-3.11 8.874-1.305 2.956-2.372 6.248-2.372 7.316 0 1.068-.452 2.786-1.004 3.818s-1.86 6.065-2.905 11.184c-1.046 5.12-2.839 12.847-3.984 17.172-1.146 4.326-1.848 8.245-1.561 8.71.287.464.074 1.65-.473 2.635-.547.985-1.484 5.391-2.08 9.791-.597 4.4-1.627 12.05-2.29 17-1.958 14.652-1.564 63.395.636 78.474 1.001 6.86 2.01 12.781 2.242 13.156.232.376.827 3.312 1.322 6.526.494 3.214 2.068 9.894 3.496 14.844 1.428 4.95 3.317 11.7 4.198 15 1.58 5.92 5.273 15.149 10.042 25.094 1.344 2.801 4.472 7.18 6.952 9.733l4.51 4.639 3.7-2.324c2.034-1.278 5.289-4.41 7.231-6.962zm146.74-26.43c-4.949-5.628-9.864-22.505-11.576-39.75-1.05-10.576-.52-55.84.769-65.5.623-4.675 1.77-13.9 2.546-20.5 1.565-13.29 3.764-25.317 6.012-32.889.813-2.736 1.477-6.531 1.477-8.435 0-1.903.89-6.45 1.98-10.105 1.088-3.654 2.192-8.203 2.455-10.108 1.148-8.348 22.684-74.477 26.942-82.731.775-1.503 3.084-7.232 5.132-12.732 2.047-5.5 5.47-13.338 7.607-17.417 2.136-4.08 3.884-7.782 3.884-8.228 0-.446 1.611-4.309 3.58-8.583 1.97-4.275 5.193-11.265 7.164-15.534 3.471-7.52 3.551-7.958 2.562-14-2.174-13.271-7.65-38.738-8.33-38.738-.394 0-1.297 2.138-2.007 4.75-2.442 8.987-9.62 21.94-13.689 24.706-7.7 5.233-16.493 2.36-21.101-6.893-3.463-6.953-3.605-23.027-.319-36.063 5.09-20.192 14.521-26.199 26.626-16.959 5.265 4.019 5.493 4.092 4.827 1.545-.326-1.246.205-2.293 1.52-2.997 3.495-1.87 4.727-.388 6.006 7.222.882 5.252 1.759 7.581 3.19 8.474 2.381 1.488 2.577 3.215.363 3.215-1.16 0-1.46.629-1.076 2.25.293 1.238 1.5 7.425 2.684 13.75 2.86 15.282 6.137 31.437 6.442 31.76.135.143 8.007-15.157 17.494-34s19.891-39.21 23.12-45.26c3.23-6.05 8.194-15.5 11.032-21 2.838-5.5 5.948-11.125 6.911-12.5.964-1.375 4.108-6.775 6.988-12 8.83-16.022 21.826-37.6 23.463-38.958.853-.708 1.55-1.765 1.55-2.349 0-1.825 4.235-10.057 6.734-13.092 1.313-1.594 3.76-5.644 5.437-9 1.678-3.356 4.238-7.657 5.69-9.56 3.177-4.162 6.7-9.732 8.06-12.745.547-1.212 4.051-6.779 7.787-12.37 3.736-5.592 9.57-14.5 12.964-19.797 3.395-5.296 7.269-10.979 8.61-12.629 1.34-1.65 3.13-4.351 3.976-6.002.846-1.652 2.484-3.859 3.64-4.905 1.156-1.047 2.102-2.304 2.102-2.793 0-1.594 10.031-15.802 12.043-17.059 1.077-.672 1.97-2.126 1.984-3.232.025-1.89 18.61-28.632 22.965-33.044 1.104-1.12 2.008-2.408 2.008-2.863 0-.455 1.156-2.24 2.57-3.965 1.412-1.725 5.305-7.412 8.65-12.637 3.344-5.225 6.689-9.86 7.43-10.3.743-.44 1.35-1.382 1.35-2.095 0-.712.946-2.151 2.103-3.198 1.156-1.046 2.77-3.192 3.585-4.769s3.15-4.728 5.188-7.002c2.038-2.275 5.462-6.74 7.608-9.925 3.895-5.778 3.899-5.794 2.152-8.75-2.892-4.896-7.636-17.072-7.636-19.599 0-3.571 4.966-3.209 9.404.687 3.94 3.46 4.384 3.147 6.482-4.549 1.386-5.085 4.69-10.5 6.409-10.5 2.338 0 4.341 2.38 6.151 7.311 2.528 6.885 1.824 17.389-1.67 24.934-3.233 6.981-6.018 8.637-11.888 7.07-4.478-1.195-3.317-2.177-11.44 9.685-2.45 3.575-5.09 7.85-5.868 9.5-.779 1.65-2.803 4.322-4.498 5.937-1.695 1.615-3.082 3.268-3.082 3.672 0 1.275-16.138 25.245-19.75 29.333-.687.778-1.25 2.136-1.25 3.018 0 .881-.69 1.868-1.534 2.192-1.305.5-5.174 5.432-8.966 11.43-.55.87-2.575 3.719-4.5 6.331-1.925 2.613-3.5 5.062-3.5 5.443 0 .38-1.237 2.027-2.75 3.658-1.512 1.631-2.75 3.284-2.75 3.674 0 .39-1.125 1.923-2.5 3.406-1.375 1.484-2.5 3.27-2.5 3.969 0 .699-.364 1.42-.808 1.604-.732.301-7.236 8.977-9.696 12.933-.548.88-2.233 3.46-3.746 5.73-1.512 2.272-2.75 4.637-2.75 5.256 0 .62-1.125 2.011-2.5 3.093-1.375 1.081-2.5 2.777-2.5 3.768 0 .99-1.546 3.49-3.435 5.553-1.89 2.063-4.028 4.936-4.75 6.386-.723 1.45-3.456 5.78-6.073 9.624-8.39 12.325-9.742 14.55-9.742 16.034 0 .801-.45 1.456-1 1.456s-1 .675-1 1.5-.42 1.5-.932 1.5c-.513 0-1.245 1.012-1.627 2.25-.382 1.237-1.319 2.925-2.082 3.75-2.803 3.03-9.359 13.8-9.359 15.376 0 .893-.45 1.624-1 1.624s-1 .605-1 1.345-.889 2.15-1.976 3.134c-1.087.983-1.717 2.208-1.4 2.721.317.513-.215 1.512-1.182 2.219-1.89 1.381-9.359 14.009-14.54 24.581-1.753 3.575-3.79 7.202-4.526 8.06-1.72 2.001-6.043 9.636-7.469 13.19-.606 1.512-1.508 2.75-2.004 2.75-.497 0-.903.707-.903 1.571 0 .865-.674 2.246-1.498 3.07-.824.825-1.783 2.705-2.131 4.179-.348 1.474-1.441 3.58-2.43 4.68-.987 1.1-3.387 5.329-5.332 9.398-1.946 4.069-4.5 8.423-5.678 9.676-1.177 1.253-1.86 2.73-1.52 3.283.343.553.127 1.31-.477 1.684-.605.374-1.99 2.758-3.08 5.3-1.089 2.54-2.296 4.853-2.683 5.139-.386.286-5.785 10.87-11.998 23.52-6.212 12.65-11.677 23.675-12.143 24.5-1.677 2.968-14.826 29.607-16.987 34.416-1.9 4.228-2.06 5.49-1.14 9 4.77 18.228 11.348 77.207 12.667 113.584.716 19.778-1.005 68.18-2.935 82.5a1515.75 1515.75 0 0 0-2.602 20.5c-2.205 18.703-8.985 48.391-13.598 59.54-4.473 10.813-15.171 30.672-19.893 36.926-8.066 10.687-17.442 19.16-24.98 22.578-7.59 3.442-14.395 3.93-16.79 1.206zm17.947-6.87c20.696-11.91 39.466-46.498 47.758-88.007 10.626-53.187 12.29-115.561 5-187.373-1.508-14.851-6.226-46.684-7.151-48.25-.892-1.509-2.326-.694-2.326 1.323 0 1.14-2.656 7.552-5.902 14.25-3.247 6.697-6.734 14.198-7.75 16.667-1.016 2.47-2.86 6.431-4.098 8.803-1.237 2.372-2.25 4.97-2.25 5.773 0 .804-.406 2.243-.902 3.198-4.492 8.644-10.096 22.015-10.104 24.108-.003.895-.678 2.917-1.5 4.492-.821 1.576-1.494 3.838-1.494 5.028 0 1.19-.613 3.05-1.363 4.135-1.49 2.154-9.491 24.84-10.749 30.473-2.072 9.281-4.211 17.14-6.454 23.708-1.354 3.965-2.361 7.565-2.239 8 .122.436-.525 3.942-1.44 7.792-2.606 10.979-5.553 25.569-6.16 30.5-.306 2.475-1.448 10.35-2.538 17.5-1.09 7.15-2.537 23.647-3.214 36.66-1.089 20.913-1.032 25.908.488 43.003 1.833 20.61 3.021 26.673 6.633 33.837 3.677 7.292 4.838 8.204 9.49 7.457 2.225-.357 5.945-1.742 8.265-3.077zm13.209-351.341c2.244-1.201 9.576-13.227 12.077-19.81 2.887-7.596 5.233-21.474 4.124-24.39-.515-1.354-3.49-4.797-6.613-7.65-9.087-8.306-12.545-7.078-17.927 6.365-6.469 16.16-5.54 39.865 1.764 44.98 2.44 1.71 4.087 1.836 6.575.505zM953.731 127.25c3.318-4.887 4.345-8.382 4.395-14.96.027-3.546-.182-6.68-.464-6.962-.977-.977-3.472 5.22-4.705 11.685-.68 3.568-1.903 7.258-2.718 8.2-1.508 1.743-1.087 4.787.662 4.787.53 0 1.803-1.238 2.83-2.75zm-8.759-6.784c-2.091-2.52-3.105-1.6-1.29 1.17.95 1.45 1.903 2.11 2.117 1.467.215-.644-.157-1.83-.827-2.637zM312.75 706.487c-2.612-1.928-4.75-3.889-4.75-4.356 0-.467-1.706-2.825-3.792-5.24-8.988-10.406-22.851-38.637-27.691-56.391-.9-3.3-2.458-8.475-3.462-11.5-1.926-5.801-4.27-16.074-8.56-37.5-5.075-25.36-6.551-39.016-7.185-66.5-.862-37.401 4.135-78.74 15.72-130.031 5.626-24.91 8.526-33.969 10.875-33.969 1.712 0 1.743.452.527 7.75-.71 4.263-2.865 13.825-4.787 21.25-4.748 18.34-6.828 28.701-11.544 57.5-8.785 53.648-8.036 100.317 2.372 147.82 3.834 17.498 8.231 34.504 10.996 42.526 1.392 4.04 2.531 7.933 2.531 8.65 0 1.272 9.948 22.876 15.25 33.12 4.299 8.305 13.245 19.437 18.22 22.674 3.43 2.23 4.552 3.556 4.33 5.11-.468 3.281-3.828 2.942-9.05-.913zm-60.25-11.15c-1.1-.236-5.825-1.144-10.5-2.017-9.827-1.836-33.525-8.343-43-11.807-9.73-3.558-31.994-12.74-35.175-14.506-.921-.512-5.196-2.797-9.5-5.078-10.667-5.654-16.126-9.01-18.996-11.679-1.33-1.238-2.92-2.25-3.53-2.25-.61 0-2.71-1.238-4.665-2.75-1.956-1.513-4.531-3.425-5.723-4.25-7.672-5.31-24.233-19.43-25.697-21.908-.965-1.634-2.646-3.253-3.734-3.599-1.089-.345-1.98-1.272-1.98-2.06S89.325 612 88.5 612s-1.5-.436-1.5-.968c0-.533-2.289-3.331-5.087-6.22-2.798-2.887-5.728-6.488-6.51-8.001-.783-1.514-2.331-3.238-3.441-3.832-1.11-.593-1.751-1.51-1.426-2.036.325-.527-.112-1.227-.972-1.557-.86-.33-1.564-.98-1.564-1.443 0-.463-1.462-2.92-3.25-5.457-10.233-14.528-19.374-34.482-22.442-48.985-2.087-9.869-1.387-24.66 1.421-30.054C48.68 493.94 56.104 490 69.07 490c7.29 0 24.926 2.907 30.504 5.028 1.406.535 2.955.972 3.442.972.487 0-6.908-7.763-16.434-17.25-24.966-24.865-35.115-40.69-44.454-69.318-5.267-16.144-6.502-25.534-5.848-44.458.85-24.578 5.805-41.47 16.577-56.513 4.988-6.967 17.205-17.51 24.307-20.98 8.158-3.984 21.529-5.91 30.836-4.44 33.34 5.262 66.476 23.882 94.422 53.057 14.558 15.2 19.265 20.976 26.132 32.07 7.923 12.8 12.662 23.104 13.058 28.392.182 2.442.108 4.44-.165 4.44s-2.07-3.45-3.992-7.668C233.658 385 226.238 373.345 216.233 360c-27.889-37.2-67.836-64.386-105.135-71.547-23.144-4.444-41.273 3.662-55.3 24.726-11.084 16.642-14.33 29.72-14.227 57.321.08 21.369 1.163 27.24 8.488 46 9 23.05 17.324 35.689 35.941 54.575C97.398 482.637 122.73 504 125.043 504c1.44 0 1.152-1.594-.543-3-.825-.685-1.5-1.669-1.5-2.187 0-.517-1.18-3.5-2.623-6.627-6.803-14.743-12.378-37.129-12.373-49.68.01-15.635 5.294-35.963 11.457-44.043 8.123-10.65 15.214-14.655 26.998-15.249 6.766-.34 9.294.018 15.937 2.264 10.814 3.656 22.99 10.537 31.746 17.943 2.002 1.693 4.815 4.057 6.25 5.253 2.47 2.059 3.565 5.326 1.786 5.326-.452 0-6.414-3.67-13.25-8.157-30.9-20.282-49.547-22.968-62.203-8.96-15.5 17.156-17.484 53.066-4.732 85.617 7.489 19.116 14.677 29.5 20.423 29.5 2.417 0 3.626 3.223 2.028 5.408-1.197 1.638-1.098 2.28.77 4.986 4.742 6.867 25.826 27.17 35.286 33.98 13.338 9.6 17.76 12.069 28.19 15.743 14.115 4.972 15.705 6.133 13.397 9.777-1.158 1.83-7.66.266-18.087-4.35-9.37-4.147-18.9-6.003-30.5-5.938-10.875.062-19.445 1.776-23.05 4.613-2.333 1.834-2.612 2.644-2.195 6.351.784 6.95 4.613 13.44 12.675 21.481 10.082 10.056 23.24 17.794 40.948 24.08 16.638 5.906 23.415 7.222 37.622 7.305 13.168.077 16.244-.631 17.539-4.037 1.454-3.826 4.386-2.782 4.762 1.695.374 4.451-.749 5.422-8.602 7.434-5.634 1.443-7.365 1.436-20.427-.08-11.602-1.346-17.078-2.584-29.272-6.618-21.43-7.089-35.007-14.682-46.352-25.923-8.528-8.449-13.445-17.453-13.545-24.803-.158-11.596 7.16-16.15 27.397-17.049l12.5-.555-4.356-3.219c-13.059-9.647-36.286-32.643-41.29-40.876-3.182-5.24-3.966-5.823-15.354-11.426-14.122-6.949-24.26-10.46-37.746-13.074-11.026-2.138-24.88-2.43-28.944-.61-3.615 1.619-8.644 8.18-9.246 12.06-1.85 11.94-.853 20.871 3.941 35.296 7.019 21.12 19.789 41.696 38.207 61.565 26.22 28.286 55.33 48.275 94.179 64.674 29.55 12.474 49.802 18.32 73.34 21.173 8.489 1.029 10.38.968 14.792-.476 5.559-1.818 7.86-1.357 5.776 1.157-2.339 2.82-7.558 4.259-15.017 4.14-4.005-.064-8.182-.31-9.282-.546zm114-20.623c-5.71-1.784-7.793-6.09-7.141-14.766.723-9.633 4.32-16.922 11.732-23.778 9.433-8.723 20.784-16.387 33.023-22.294l11.139-5.376-.588-25.5c-.708-30.692-2.326-43.241-10.121-78.5-4.119-18.629-7.44-31.573-10.262-40-1.105-3.3-3.041-9.262-4.302-13.25-1.26-3.987-2.56-7.24-2.886-7.227-.326.013-2.394 3.237-4.594 7.164-5.814 10.38-23.867 37.18-30.524 45.313-7.06 8.626-16.491 17.681-20.663 19.838-3.648 1.887-12.906 2.468-14.465.91-1.807-1.808.066-3.248 4.222-3.248 6.283 0 12.078-3.418 19.283-11.374 14.455-15.96 26.677-33.608 40.122-57.935 3.388-6.13 3.707-7.326 3.196-12-.619-5.663-1.566-10-4.191-19.191-.943-3.3-2.06-7.575-2.484-9.5-.424-1.925-1.493-6.2-2.376-9.5-4.451-16.63-8.575-43.122-8.6-55.25-.017-8.07.247-9.517 2.074-11.344 4.791-4.79 17.521 1.618 25.644 12.91 13.117 18.236 13.37 54.682.593 85.491l-3.653 8.808 2.818 9.192c1.55 5.056 3.863 12.568 5.14 16.693 7.681 24.818 15.668 57.443 17.767 72.573 2.605 18.788 3.54 30.007 4.13 49.535l.68 22.607 3.846-1.857c2.114-1.022 4.282-1.858 4.818-1.858.535 0 4.344-1.35 8.464-3 7.884-3.157 12.1-3.822 11.427-1.803-.49 1.472-7.039 5.305-11.768 6.888-1.925.645-6.675 2.49-10.556 4.101l-7.057 2.929-2.652 12.192c-2.062 9.479-3.882 14.672-8.174 23.332-4.774 9.63-6.507 12.053-12.791 17.898-3.998 3.717-9.216 7.628-11.595 8.691-5.494 2.454-13.528 3.093-18.675 1.486zm18.959-7.137c10.142-5.944 19.084-18.49 23.928-33.577 2.229-6.939 4.613-16.793 4.613-19.062 0-1.496-12.4 5.118-24 12.801-11.856 7.853-20.13 16.04-23.18 22.935-2.755 6.228-2.022 15.844 1.424 18.69 3.07 2.535 11.297 1.681 17.215-1.787zm6.909-250.828c8.59-27.713 8.811-49.372.684-67.296-3.84-8.467-8.13-13.828-13.658-17.068-6.86-4.02-7.395-3.31-7.385 9.834.009 11.371 3.34 34.678 6.472 45.281.813 2.75 2.381 9.05 3.486 14 2.761 12.379 6.187 24.5 6.922 24.499.336-.001 1.902-4.164 3.479-9.25zM879.962 540.25c-4.056-3.634-5.947-11.057-3.307-12.987 2.62-1.915 3.558-1.154 5.283 4.29 1.022 3.223 2.199 5.05 3.402 5.278 2.422.461 5.847-2.86 8.73-8.468 2.12-4.12 2.451-4.371 3.631-2.757 4.293 5.87-4.09 17.394-12.653 17.394-1.109 0-3.397-1.238-5.086-2.75zm-14.68-2.5c-.531-.688-1.744-3.275-2.696-5.75-3.318-8.627-3.845-9.047-10.492-8.352-5.317.556-5.992.41-7.026-1.52-1.323-2.474-.336-3.044 8.932-5.156 6.81-1.552 14.722-5.017 17.903-7.84 3.007-2.668 3.613-2.661 5.52.062 1.965 2.804.85 4.156-6.85 8.306-6.14 3.31-7.223 5.08-2.534 4.142 3.86-.772 11.961-7.48 11.961-9.903 0-1.011-.618-3.053-1.373-4.539-2.907-5.717-2.946-7.128-.225-8.162 2.523-.96 2.528-.986 1.011-5.251-3.62-10.18-.592-20.116 4.472-14.68l1.9 2.039 1.539-2.197c1.028-1.468 3.234-2.505 6.647-3.125 2.81-.511 7.153-1.805 9.652-2.876 8.005-3.432 9.367-2.502 12.668 8.645.83 2.8 2.514 7.064 3.743 9.474 1.776 3.481 2.032 4.92 1.245 7.006-.809 2.143-.654 2.836.842 3.77 2.617 1.634 5.88 8.503 5.876 12.367-.004 3.918-2.913 9.034-6.453 11.354-3.178 2.082-9.922 2.073-13.112-.017-6.035-3.954-8.742-18.348-3.932-20.904 1.1-.585 3.22-1.868 4.71-2.853 1.49-.984 3.676-1.79 4.858-1.79 1.843 0 2.052-.392 1.467-2.75-.374-1.513-1.53-4.68-2.57-7.04l-1.887-4.29-4.039 2.673c-2.221 1.47-4.08 2.95-4.132 3.29-.051.34-.233 2.527-.405 4.862-.646 8.807-6.295 13.904-12.722 11.478-3.869-1.46-4.365-1.07-2.462 1.94 1.964 3.108 4.915 13.652 4.161 14.871-1.236 2.001-4.459.905-5.979-2.034-.853-1.65-1.812-3-2.131-3-.32 0-2.22 1.288-4.225 2.863-2.004 1.575-5.106 3.611-6.894 4.526-3.641 1.863-3.891 2.857-1.749 6.965.819 1.57 1.24 3.257.935 3.75-.821 1.329-5.045 1.086-6.155-.354zm53.452-17.716c3.011-2.806 3.477-5.12 1.932-9.604-1.13-3.28-1.857-3.98-4.394-4.235-2.712-.272-3.269.167-5.156 4.066-2.611 5.394-2.613 5.837-.043 9.104 2.469 3.139 4.792 3.341 7.66.669zM894.8 500.8c2.28-2.279 1.414-7.74-1.723-10.877-2.836-2.836-7.347-3.912-8.51-2.03-.659 1.065 1.897 8.639 3.994 11.84 1.625 2.48 4.36 2.947 6.24 1.067zm13.551-19.75c1.933-1.934-.326-2.329-6.192-1.084-7.936 1.685-9.224 2.534-6.67 4.402 1.745 1.276 2.56 1.226 6.912-.428 2.714-1.032 5.392-2.332 5.95-2.89zm-59.982 24.582c-4.03-4.031-4.369-4.768-4.369-9.536 0-6.307 1.808-9.313 7.663-12.744 5.332-3.125 9.739-2.666 13.54 1.41 3.585 3.845 4.797 6.55 4.797 10.704 0 8.391-5.647 14.523-13.381 14.53-3.252.003-4.59-.704-8.25-4.364zm13.042-3.709c3.317-3.942 3.427-8.837.28-12.495-2.944-3.423-5.275-2.773-9.672 2.699-3.261 4.058-3.274 4.114-1.653 7.513 1.486 3.116 4.261 5.131 7.295 5.297.64.035 2.327-1.322 3.75-3.014z" style="fill:#000"/></svg>